<?xml version="1.0" encoding="UTF-8"?>
<svg width="1404px" height="1872px" viewBox="0 0 1404 1872" xmlns="http://www.w3.org/2000/svg" xmlns:xlink="http://www.w3.org/1999/xlink" version="1.1">
  <defs>
    <g id="Header">
      <text x="200" y="100" font-family="TSCu_Comic" font-weight="bold" font-size="100px">Meeting</text>
      <text x="800" y="100" font-family="TSCu_Comic" font-weight="bold" font-size="75px">Date :</text>
  <g>
    <path d="m 283.78109,98.606965 q 0,1.393035 -1.19403,2.587065 -1.19403,1.19403 -2.58706,1.19403 -2.48756,0 -3.58209,-2.587065 -4.47761,-10.348259 -7.36318,-23.681592 -1.29354,-6.467662 -2.28856,-14.726368 -0.79602,-7.462687 -0.79602,-14.427861 -5.47264,7.064677 -10.74627,16.119403 L 247.56219,76.0199 q -2.88557,4.975125 -3.58209,5.17413 -3.28358,0 -7.26368,-10.049751 -3.28358,-8.258707 -6.06965,-22.189055 l -5.47264,9.253731 q -4.77612,8.159204 -8.65672,17.014926 -5.47263,12.338308 -8.1592,23.582089 -0.39801,1.69154 -1.39304,2.18905 -0.89552,0.59702 -2.58706,0.59702 -1.09453,0 -2.48756,-0.89552 -0.89553,-0.796022 -1.09453,-2.487565 0,-6.766169 8.35821,-24.975124 6.66667,-14.626866 12.53731,-24.37811 8.55722,-14.129353 12.53732,-14.129353 1.89054,0 4.47761,15.522388 1.79104,10.348259 4.87562,17.114428 7.16418,-13.631841 16.81592,-24.676617 8.25871,-9.452736 11.04478,-9.452736 2.18905,0 2.18905,14.527363 0,11.343284 2.58707,23.880597 1.89054,9.054726 4.87562,18.507463 z" />
    <path d="m 323.98006,92.935323 q 0,3.681592 -9.15423,6.666667 -7.56219,2.38806 -12.43781,2.38806 -15.62189,0 -15.62189,-13.631841 0,-8.756219 5.97015,-15.920398 6.76616,-8.258707 16.71641,-8.258707 6.36816,0 10.24876,2.587065 3.8806,2.587065 3.8806,5.870647 0,5.970149 -11.7413,12.039801 -9.85074,5.074627 -13.43283,5.074627 -2.78607,0 -2.78607,-3.383085 0,-1.094527 10.44776,-5.373134 10.54726,-4.37811 10.54726,-7.263682 0,-1.19403 -1.59204,-2.189054 -1.79104,-0.696518 -5.57214,-0.696518 -7.46268,0 -11.84079,5.273632 -3.9801,4.875622 -3.9801,12.039801 0,3.482587 1.99005,5.373134 1.99005,1.890548 6.36816,1.890548 4.97512,0 9.25373,-1.99005 l 9.55224,-4.477612 q 3.18408,0 3.18408,3.980099 z" />
    <path d="m 364.17895,92.935323 q 0,3.681592 -9.15422,6.666667 -7.56219,2.38806 -12.43781,2.38806 -15.6219,0 -15.6219,-13.631841 0,-8.756219 5.97015,-15.920398 6.76617,-8.258707 16.71642,-8.258707 6.36816,0 10.24876,2.587065 3.88059,2.587065 3.88059,5.870647 0,5.970149 -11.74129,12.039801 -9.85074,5.074627 -13.43283,5.074627 -2.78607,0 -2.78607,-3.383085 0,-1.094527 10.44776,-5.373134 10.54726,-4.37811 10.54726,-7.263682 0,-1.19403 -1.59204,-2.189054 -1.79104,-0.696518 -5.57214,-0.696518 -7.46268,0 -11.84079,5.273632 -3.9801,4.875622 -3.9801,12.039801 0,3.482587 1.99005,5.373134 1.99005,1.890548 6.36816,1.890548 4.97512,0 9.25373,-1.99005 l 9.55224,-4.477612 q 3.18407,0 3.18407,3.980099 z" />
    <path d="m 401.79079,66.965174 q 0,1.492537 -0.89552,2.38806 -0.99503,1.094527 -2.48757,1.293532 l -10.54726,0.895523 -4.47761,27.263681 q -0.49751,2.58706 -3.9801,2.98507 -3.18408,0 -3.18408,-3.184075 l 4.37811,-26.467662 -9.35324,0.895523 q -1.19402,0 -2.28855,-1.094527 -0.99503,-0.79602 -1.19403,-2.189055 0,-1.791045 0.79602,-2.686567 0.89552,-0.995025 2.38806,-1.094528 l 10.84577,-0.79602 2.18905,-14.82587 q 0.49752,-2.78607 3.58209,-2.78607 1.19403,0 2.38806,0.895522 0.99503,1.094528 0.99503,2.686568 l -1.99005,13.23383 9.45273,-0.796019 q 1.09453,0 2.18906,0.796019 0.99502,0.895523 1.19403,2.587065 z" />
    <path d="m 421.59161,54.427861 q 0,3.283582 -2.78607,4.278607 -0.79602,0.298507 -1.99005,0.298507 -1.89054,0 -3.18408,-1.19403 -1.29353,-1.19403 -1.29353,-3.383084 0,-4.577115 4.47761,-4.577115 1.99005,0 3.48259,1.094528 1.29353,1.393034 1.29353,3.482587 z m -3.58209,13.532338 q 0,1.791045 -0.59701,5.671642 l -4.17911,25.373134 q 0,1.293535 -1.29353,2.089555 -1.19403,0.89552 -2.48756,0.89552 -2.88557,0 -3.28358,-3.383085 l 0.69652,-4.875622 4.37811,-25.970149 q 0.49751,-2.78607 3.58208,-2.78607 3.18408,0 3.18408,2.985075 z" />
    <path d="m 462.9846,78.208955 q 0,4.875622 -1.19403,10.149254 -0.39801,1.691542 -1.39303,5.174129 -0.89552,3.482587 -1.79105,5.57214 -1.19403,2.686562 -2.98507,2.686562 -3.9801,0 -3.9801,-3.582085 1.69154,-5.771144 2.68657,-10.447761 1.29353,-6.069652 1.29353,-10.547264 0,-5.074627 -2.48756,-5.074627 -2.88558,0 -11.24378,5.57214 -8.45772,5.572139 -8.85573,8.059701 l -2.18905,13.233831 q -0.49751,2.786065 -3.68159,2.786065 -3.38309,0 -3.38309,-3.38308 l 5.27363,-31.840796 q 0.39801,-2.786069 3.8806,-2.786069 1.19403,0 2.28856,1.293532 0.79602,0.696517 0.79602,1.890547 v 0.39801 l -0.99503,6.567164 q 12.53732,-9.552239 21.19403,-9.552239 2.48757,0 4.57712,3.781095 2.18905,3.681592 2.18905,10.049751 z" />
    <path d="m 505.96954,68.557214 -7.36318,45.074626 q -1.29354,7.66169 -6.96518,12.0398 -5.47263,4.0796 -13.43283,4.0796 -6.16916,0 -10.94528,-3.9801 -4.0796,-3.48258 -4.0796,-6.56716 0,-2.98507 3.18408,-3.38308 1.89055,0 3.9801,2.18905 4.37811,4.77612 7.8607,4.77612 4.0796,0 7.46268,-1.89055 4.87563,-2.68656 5.97015,-8.85572 l 2.78607,-16.915422 -4.67661,2.78607 q -5.87065,2.885572 -11.14428,2.885572 -5.17413,0 -8.85572,-3.681592 -3.58209,-3.781095 -3.58209,-9.950249 0,-7.462686 6.16915,-14.328358 6.96517,-7.860697 17.41294,-7.860697 3.78109,0 5.17413,0.79602 1.29353,0.895523 1.29353,2.78607 0,2.487562 -1.59204,3.18408 -0.79602,0.398009 -3.7811,0.398009 -7.9602,0 -13.13433,5.17413 -4.47761,4.378109 -4.47761,9.850746 0,5.970149 5.37314,5.970149 8.35821,0 17.41293,-8.159204 l 2.98508,-17.61194 q 0.59701,-3.18408 3.38308,-3.18408 1.89055,0 2.78607,0.895523 0.79602,0.995025 0.79602,3.482587 z" />
  </g>
  <g>
    <path d="m 850.07463,69.402985 q 0,10.895522 -7.68657,18.507463 -6.64179,6.343283 -18.0597,9.701492 -10,2.83582 -21.04478,2.83582 -3.28358,0 -3.28358,-2.83582 0,-2.388059 2.61194,-3.059701 1.1194,-0.298508 4.47761,-0.298508 5.52239,-18.656716 5.52239,-31.343283 0,-1.268657 0.89552,-2.164179 0.89553,-0.97015 2.23881,-0.97015 2.53731,0 2.53731,2.985075 0,8.059702 -1.34328,15.298507 -1.26866,7.238806 -3.8806,15.820896 2.61194,0 8.13433,-1.567164 9.40298,-2.537314 15,-6.716418 8.20896,-6.044776 8.20896,-15.149254 0,-13.656716 -15.89553,-13.656716 -8.13433,0 -12.98507,1.41791 l -11.04478,3.208955 q -1.19403,0 -1.79104,-0.671641 -0.44776,-0.671642 -0.44776,-2.014926 0,-1.940298 1.94029,-2.985074 13.80597,-4.850747 24.92538,-4.850747 9.1791,0 14.85074,4.626866 6.11941,4.925373 6.11941,13.880597 z" />
    <path d="m 882.46268,76.119403 q -4.1791,12.761194 -4.1791,22.835821 0,2.238806 -2.53732,2.537316 -1.26865,0 -2.08955,-0.97015 -0.74627,-0.895524 -0.74627,-2.164181 -2.46268,2.985071 -8.73134,2.985071 -4.25373,0 -7.76119,-2.985071 -4.10448,-3.507463 -4.10448,-9.029851 0,-6.865671 5.37313,-11.343283 5.07463,-4.253732 12.08956,-4.253732 3.43283,0 4.47761,0.820896 Q 875,75.074627 875,76.41791 q 0,1.044777 -0.59702,1.865672 -0.67164,0.671642 -2.46269,0.671642 -5.44776,0 -9.40298,2.313433 -4.77612,2.835821 -4.77612,7.910447 0,3.731344 2.46269,5.447762 1.71641,1.19403 4.10447,1.19403 4.7015,0 8.73135,-3.208956 2.16418,-12.014925 3.80597,-15.970149 1.19403,-2.910448 3.0597,-2.910448 2.38806,0 2.53731,2.38806 z" />
    <path d="m 910.6715,75.223881 q 0,1.119403 -0.67164,1.791044 -0.74627,0.820896 -1.86567,0.97015 l -7.91045,0.671641 -3.35821,20.447762 q -0.37313,1.940302 -2.98507,2.238802 -2.38806,0 -2.38806,-2.388056 l 3.28358,-19.850746 -7.01493,0.671641 q -0.89552,0 -1.71641,-0.820895 -0.74627,-0.597015 -0.89553,-1.641791 0,-1.343284 0.59702,-2.014926 0.67164,-0.746268 1.79104,-0.820895 l 8.13433,-0.597015 1.64179,-11.119403 q 0.37314,-2.089552 2.68657,-2.089552 0.89552,0 1.79105,0.671642 0.74626,0.820895 0.74626,2.014925 l -1.49253,9.925373 7.08955,-0.597015 q 0.82089,0 1.64179,0.597015 0.74627,0.671642 0.89552,1.940299 z" />
    <path d="m 940.82063,94.701493 q 0,2.761194 -6.86568,5 -5.67164,1.791047 -9.32835,1.791047 -11.71642,0 -11.71642,-10.223883 0,-6.567164 4.47761,-11.940299 5.07463,-6.19403 12.53731,-6.19403 4.77612,0 7.68657,1.940299 2.91045,1.940298 2.91045,4.402985 0,4.477612 -8.80597,9.029851 -7.38806,3.80597 -10.07463,3.80597 -2.08955,0 -2.08955,-2.537314 0,-0.820895 7.83582,-4.02985 7.91045,-3.283582 7.91045,-5.447762 0,-0.895522 -1.19403,-1.641791 -1.34329,-0.522388 -4.17911,-0.522388 -5.59701,0 -8.88059,3.955224 -2.98508,3.656717 -2.98508,9.029851 0,2.61194 1.49254,4.029851 1.49254,1.41791 4.77612,1.41791 3.73134,0 6.9403,-1.492537 l 7.16418,-3.358209 q 2.38806,0 2.38806,2.985075 z" />
    <path d="m 986.5667,74.776119 q 0,1.343284 -0.97015,2.313433 -0.89552,0.895523 -2.16418,0.895523 -3.20895,0 -3.20895,-3.208956 0,-3.134328 3.0597,-3.134328 3.28358,0 3.28358,3.134328 z m -2.01492,23.134329 q 0,1.343283 -0.89553,2.313432 -0.82089,0.97015 -2.2388,0.97015 -3.13433,0 -3.13433,-3.283582 0,-1.492538 0.97015,-2.313433 0.97015,-0.895522 2.16418,-0.895522 3.13433,0 3.13433,3.208955 z" />
  </g>
      <g transform="matrix(0.4,0,0,0.4,50,8)"> 
        <path d="M148.5,116.187c32.029,0,58.086-26.057,58.086-58.086S180.529,0.014,148.5,0.014S90.414,26.072,90.414,58.101   S116.471,116.187,148.5,116.187z M120.402,51.894c3.429-3.427,8.985-3.427,12.414,0l8.387,8.388L164.184,37.3   c3.429-3.427,8.985-3.427,12.414,0c3.428,3.428,3.428,8.986,0,12.414L147.41,78.902c-1.714,1.713-3.96,2.571-6.207,2.571   c-2.247,0-4.493-0.857-6.207-2.571l-14.594-14.594C116.974,60.88,116.974,55.321,120.402,51.894z"/>
        <path d="M34.165,84.869c18.839,0,34.166-15.327,34.166-34.166S53.004,16.537,34.165,16.537S0,31.864,0,50.703   S15.326,84.869,34.165,84.869z"/>
        <path d="m3.367,133.777v70.955c0,16.297 13.211,29.508 29.508,29.508h38.457v52.407c0,3.992 3.236,7.229 7.229,7.229h34.077c3.992,0 7.229-3.236 7.229-7.229v-75.595c0-13.757-11.152-24.908-24.908-24.908h-29.995v-52.367c0-17.009-13.789-30.798-30.798-30.798-17.01-0.001-30.799,13.788-30.799,30.798z"/>
        <path d="m262.835,84.869c18.839,0 34.165-15.327 34.165-34.166s-15.326-34.166-34.165-34.166-34.166,15.327-34.166,34.166 15.327,34.166 34.166,34.166z"/>
        <path d="m232.036,133.777v52.367h-29.994c-13.757,0-24.909,11.152-24.909,24.908v75.595c0,3.992 3.236,7.229 7.229,7.229h34.077c3.992,0 7.229-3.236 7.229-7.229v-52.407h38.457c16.297,0 29.508-13.211 29.508-29.508v-70.955c0-17.009-13.789-30.798-30.798-30.798-17.01-0.001-30.799,13.788-30.799,30.798z"/>
        <path d="m199.616,151.813c4.848,0 8.777-3.93 8.777-8.777 0-4.848-3.93-8.777-8.777-8.777h-102.232c-4.848,0-8.777,3.93-8.777,8.777 0,4.848 3.93,8.777 8.777,8.777h42.338v136.395c0,4.848 3.93,8.777 8.777,8.777s8.777-3.93 8.777-8.777v-136.395h42.34z"/>
      </g>
      
      
    </g>
    <g id="Border">
      <rect x="0" y="0" width="1404" height="1872" stroke="black" stroke-width="10" fill="none"/>
    </g>
  </defs>
      

  <!-- The HEADER -->
  <rect rx="25" x="780" y="35" width="614" height="85" stroke="white" stroke-width="1" fill="lightgrey"/>

  <use xlink:href="#Header" x="0" y="0" />
  <rect rx="25" x="10" y="130" width="1384" height="1732" stroke="grey" stroke-width="1" fill="grey"/>



  <g id="agenda">
      <rect rx="25" x="20" y="200" width="668" height="1070" stroke="white" stroke-width="1" fill="white"/>
      <text x="50" y="180" stroke="black" fill="white" stroke-width="2" font-family="TSCu_Comic" font-weight="bold" font-size="60px">Agenda</text>
  <g>
    <path d="m 86.358209,166.92537 q 0,6.68657 -0.716418,13.43284 -0.119403,1.07463 -0.835821,1.61194 -0.537313,0.53731 -1.552239,0.53731 -2.149253,0 -2.149253,-2.38806 l 0.41791,-4.71641 0.119403,-4.89553 v -3.04477 l -0.0597,-2.98508 -21.611941,2.20896 q -2.447761,4.77612 -4.298507,11.52239 -0.955224,3.46268 -3.044776,3.46268 -0.895523,0 -1.611941,-0.53731 -0.656716,-0.47761 -0.656716,-1.61194 0,-2.68657 3.462687,-10.56717 4.298507,-9.85074 9.850746,-16.89552 7.402985,-9.37313 15.522388,-12 2.626866,0 4.895522,7.9403 2.268657,7.8209 2.268656,18.92537 z m -5.014925,-7.10447 q 0,-4.71642 -1.552239,-9.91045 -1.373135,-4.41791 -1.910448,-4.47761 -7.761194,4.65671 -15.283582,16.41791 z" />
    <path d="m 112.14915,161.13433 -4.41791,27.04477 q -0.77612,4.59702 -4.1791,7.22389 -3.28358,2.44776 -8.059703,2.44776 -3.701493,0 -6.567164,-2.38806 -2.447761,-2.08956 -2.447761,-3.9403 0,-1.79105 1.910447,-2.02985 1.134329,0 2.38806,1.31343 2.626866,2.86567 4.716418,2.86567 2.447761,0 4.477612,-1.13433 2.925371,-1.61194 3.582091,-5.31343 l 1.67164,-10.14925 -2.80597,1.67164 q -3.522388,1.73134 -6.686567,1.73134 -3.104478,0 -5.313433,-2.20895 -2.149254,-2.26866 -2.149254,-5.97015 0,-4.47761 3.701493,-8.59702 4.179104,-4.71642 10.447761,-4.71642 2.26866,0 3.10448,0.47762 0.77612,0.53731 0.77612,1.67164 0,1.49254 -0.95523,1.91045 -0.47761,0.2388 -2.26865,0.2388 -4.776123,0 -7.880601,3.10448 -2.686567,2.62687 -2.686567,5.91045 0,3.58209 3.223881,3.58209 5.014927,0 10.447757,-4.89553 l 1.79105,-10.56716 q 0.35821,-1.91045 2.02985,-1.91045 1.13433,0 1.67164,0.53732 0.47761,0.59701 0.47761,2.08955 z" />
    <path d="m 136.26849,175.76119 q 0,2.20896 -5.49254,4 -4.53731,1.43284 -7.46268,1.43284 -9.37314,0 -9.37314,-8.1791 0,-5.25374 3.58209,-9.55224 4.0597,-4.95523 10.02985,-4.95523 3.8209,0 6.14925,1.55224 2.32836,1.55224 2.32836,3.52239 0,3.58209 -7.04477,7.22388 -5.91045,3.04478 -8.0597,3.04478 -1.67165,0 -1.67165,-2.02985 0,-0.65672 6.26866,-3.22389 6.32836,-2.62686 6.32836,-4.3582 0,-0.71642 -0.95523,-1.31344 -1.07462,-0.41791 -3.34328,-0.41791 -4.47761,0 -7.10448,3.16418 -2.38806,2.92537 -2.38806,7.22388 0,2.08955 1.19403,3.22388 1.19403,1.13433 3.8209,1.13433 2.98507,0 5.55224,-1.19403 l 5.73134,-2.68657 q 1.91045,0 1.91045,2.38806 z" />
    <path d="m 161.10425,166.92537 q 0,2.92538 -0.71642,6.08956 -0.23881,1.01492 -0.83582,3.10447 -0.53732,2.08956 -1.07463,3.34329 -0.71642,1.61194 -1.79104,1.61194 -2.38806,0 -2.38806,-2.14926 1.01492,-3.46268 1.61194,-6.26865 0.77612,-3.64179 0.77612,-6.32836 0,-3.04478 -1.49254,-3.04478 -1.73135,0 -6.74627,3.34329 -5.07463,3.34328 -5.31343,4.83582 l -1.31344,7.9403 q -0.2985,1.67164 -2.20895,1.67164 -2.02985,0 -2.02985,-2.02985 l 3.16418,-19.10448 q 0.2388,-1.67164 2.32836,-1.67164 0.71641,0 1.37313,0.77612 0.47761,0.41791 0.47761,1.13432 v 0.23881 l -0.59701,3.9403 q 7.52238,-5.73134 12.71641,-5.73134 1.49254,0 2.74627,2.26865 1.31344,2.20896 1.31344,6.02985 z" />
    <path d="m 189.46237,144.1194 -5.91044,35.64179 q -0.23881,1.43284 -2.26866,1.43284 -1.91045,0 -1.91045,-2.26866 l 0.23881,-1.55224 -2.98508,1.73135 q -3.04477,1.73134 -6.50746,1.73134 -2.14925,0 -4.29851,-1.55224 -3.04477,-2.20895 -3.04477,-6.26865 0,-5.07463 3.94029,-9.31344 4.59702,-5.07462 12.11941,-5.07462 h 1.37313 q 0.41791,0 1.13433,0.1194 l 1.37313,0.2388 2.50747,-15.10447 q 0,-1.43284 2.26865,-1.67164 0.95523,0 1.61194,0.77611 0.35821,0.53732 0.35821,1.13433 z m -7.46268,19.16418 q -0.35821,-0.35821 -3.9403,-0.35821 -5.25373,0 -8.35821,3.64179 -2.56717,2.92538 -2.56717,6.80597 0,1.73135 1.25374,2.50747 0.89552,0.65671 1.97015,0.65671 2.44776,0 5.97014,-1.79104 2.32836,-1.19403 4.11941,-2.68657 z" />
    <path d="m 215.37273,160.89552 q -3.34329,10.20896 -3.34329,18.26866 0,1.79104 -2.02985,2.02985 -1.01492,0 -1.67164,-0.77612 -0.59701,-0.71642 -0.59701,-1.73134 -1.97015,2.38806 -6.98508,2.38806 -3.40298,0 -6.20895,-2.38806 -3.28358,-2.80597 -3.28358,-7.22388 0,-5.49254 4.2985,-9.07463 4.0597,-3.40299 9.67164,-3.40299 2.74627,0 3.58209,0.65672 0.59702,0.41791 0.59702,1.49254 0,0.83582 -0.47761,1.49254 -0.53732,0.53731 -1.97015,0.53731 -4.35821,0 -7.52239,1.85075 -3.8209,2.26865 -3.8209,6.32835 0,2.98508 1.97015,4.35821 1.37314,0.95523 3.28359,0.95523 3.76119,0 6.98507,-2.56717 1.73134,-9.61194 3.04478,-12.77612 0.95522,-2.32836 2.44776,-2.32836 1.91045,0 2.02985,1.91045 z" />
  </g>
  </g>

  <g id="notes">
      <rect rx="25" x="706" y="130" width="688" height="1150" stroke="grey" stroke-width="1" fill="grey"/>
      <rect rx="25" x="716" y="200" width="668" height="1070" stroke="white" stroke-width="1" fill="white"/>
      <text x="746" y="180" stroke="black" fill="white" stroke-width="2" font-family="TSCu_Comic" font-weight="bold" font-size="60px">Notes</text>
  <g>
    <path d="m 786.0597,143.28358 q 0,5.31343 -1.55224,14.26866 -1.49253,8.71642 -3.88059,15.28358 -2.68657,7.40299 -5.07463,7.40299 -2.20896,0 -5.49254,-8.41791 l -6.14925,-15.6418 q -3.34329,-8.47761 -4.83582,-8.47761 -2.02985,0 -4.29851,13.07463 -0.77612,4.47761 -2.50746,18.62687 -0.23881,1.91044 -2.56717,1.91044 -2.02985,0 -2.02985,-2.50746 0,-5.49254 1.91045,-14.74627 1.55224,-7.76119 3.70149,-14.56716 2.62687,-8.65672 4.83582,-8.65672 3.28359,0 7.58209,8.29851 2.68657,5.19403 6.56717,15.40298 3.22388,8.41791 3.40298,8.47762 0.29851,0 1.55224,-4.53732 0.53731,-2.02985 1.13433,-4.77612 0.29851,-1.49253 1.13433,-5.61194 1.13433,-5.97015 2.02985,-14.56716 0,-2.08955 2.62686,-2.38806 0.77612,0 1.37314,0.65671 0.53731,0.65672 0.53731,1.49254 z" />
    <path d="m 810.0597,167.76119 q 0,5.55224 -3.58209,9.25374 -3.58209,3.70149 -9.73134,3.70149 -4.59702,0 -7.10448,-3.16418 -2.14925,-2.74627 -2.14925,-7.16418 0,-4.53731 3.34328,-7.9403 3.82089,-3.9403 9.85075,-3.9403 4.53731,0 7.16417,3.04478 2.20896,2.62686 2.20896,6.20895 z M 806,168.47761 q 0,-2.20895 -1.31343,-3.8806 -1.61194,-1.97014 -4.83583,-1.97014 -3.40298,0 -5.85074,2.50746 -2.14926,2.20895 -2.14926,5.01492 0,6.26866 5.73135,6.26866 3.46268,0 5.91045,-2.38806 Q 806,171.64179 806,168.47761 Z" />
    <path d="m 832.62684,160.1791 q 0,0.89553 -0.53731,1.43284 -0.59702,0.65672 -1.49254,0.77612 l -6.32836,0.53731 -2.68656,16.35821 q -0.29851,1.55224 -2.38806,1.79105 -1.91045,0 -1.91045,-1.91045 l 2.62686,-15.8806 -5.61194,0.53732 q -0.71641,0 -1.37313,-0.65672 -0.59702,-0.47761 -0.71642,-1.31343 0,-1.07463 0.47761,-1.61194 0.53732,-0.59702 1.43284,-0.65672 l 6.50746,-0.47761 1.31343,-8.89552 q 0.29851,-1.67165 2.14926,-1.67165 0.71642,0 1.43283,0.53732 0.59702,0.65671 0.59702,1.61194 l -1.19403,7.9403 5.67164,-0.47762 q 0.65672,0 1.31343,0.47762 0.59702,0.53731 0.71642,1.55223 z" />
    <path d="m 856.74614,175.76119 q 0,2.20896 -5.49253,4 -4.53732,1.43284 -7.46269,1.43284 -9.37314,0 -9.37314,-8.1791 0,-5.25374 3.58209,-9.55224 4.05971,-4.95523 10.02985,-4.95523 3.8209,0 6.14926,1.55224 2.32836,1.55224 2.32836,3.52239 0,3.58209 -7.04478,7.22388 -5.91045,3.04478 -8.0597,3.04478 -1.67164,0 -1.67164,-2.02985 0,-0.65672 6.26865,-3.22389 6.32836,-2.62686 6.32836,-4.3582 0,-0.71642 -0.95522,-1.31344 -1.07463,-0.41791 -3.34329,-0.41791 -4.47761,0 -7.10447,3.16418 -2.38806,2.92537 -2.38806,7.22388 0,2.08955 1.19403,3.22388 1.19403,1.13433 3.82089,1.13433 2.98508,0 5.55224,-1.19403 l 5.73134,-2.68657 q 1.91045,0 1.91045,2.38806 z" />
    <path d="m 875.67145,161.25373 q 0,1.01493 -0.53731,1.73134 -0.65672,0.83583 -1.55224,0.83583 -0.41791,0 -2.74627,-0.89553 -2.26866,-0.95522 -3.8806,-0.95522 -2.68656,0 -2.86567,1.73134 0,1.37314 2.92538,2.68657 4.89552,2.20895 5.43283,2.56716 2.92537,1.85075 2.92537,4.59702 0,4.2388 -2.86567,6.14925 -2.02985,1.37314 -5.07462,1.37314 -4.83583,0 -6.86568,-0.77612 -2.02985,-0.77612 -2.02985,-2.08955 0,-2.08956 1.79105,-2.44777 l 3.16418,0.89553 q 1.25373,0.35821 3.10447,0.35821 4.41792,0 4.41792,-2.92538 0,-1.37313 -2.86568,-2.86567 -5.07462,-2.50746 -5.37313,-2.74627 -2.92537,-1.97015 -2.92537,-4.53731 0,-2.92537 2.62686,-4.47761 2.14926,-1.19403 5.31343,-1.19403 2.14926,0 4.53732,0.65671 3.34328,0.83582 3.34328,2.32836 z" />
  </g>
  </g>

  <g id="actions">
      <rect rx="25" x="20" y="1340" width="1364" height="512" stroke="white" stroke-width="1" fill="lightgrey"/>
      <text x="50" y="1320" stroke="black" fill="white" stroke-width="2" font-family="TSCu_Comic" font-weight="bold" font-size="60px">Action points</text>
  <g>
    <path d="m 86.358209,1306.9254 q 0,6.6865 -0.716418,13.4328 -0.119403,1.0746 -0.835821,1.6119 -0.537313,0.5374 -1.552239,0.5374 -2.149253,0 -2.149253,-2.3881 l 0.41791,-4.7164 0.119403,-4.8955 v -3.0448 l -0.0597,-2.9851 -21.611941,2.209 q -2.447761,4.7761 -4.298507,11.5224 -0.955224,3.4626 -3.044776,3.4626 -0.895523,0 -1.611941,-0.5373 -0.656716,-0.4776 -0.656716,-1.6119 0,-2.6866 3.462687,-10.5672 4.298507,-9.8507 9.850746,-16.8955 7.402985,-9.3731 15.522388,-12 2.626866,0 4.895522,7.9403 2.268657,7.8209 2.268656,18.9254 z m -5.014925,-7.1045 q 0,-4.7164 -1.552239,-9.9105 -1.373135,-4.4179 -1.910448,-4.4776 -7.761194,4.6568 -15.283582,16.4179 z" />
    <path d="m 110.59691,1301.3731 q 0,0.9553 -0.59701,1.4926 -0.59702,0.7164 -1.55224,0.7164 l -1.91045,-0.597 q -1.85074,-0.4776 -3.46268,-0.4776 -4.597018,0 -8.059705,3.5821 -3.104478,3.2238 -3.104478,6.6865 0,1.6717 1.134329,2.806 1.134328,1.0746 3.044776,1.0746 2.925373,0 5.074628,-1.1343 l 4.77612,-2.3881 q 2.02985,0 2.02985,2.0896 0,2.1492 -4.83582,4.1194 -4.179107,1.6119 -6.805972,1.6119 -3.641791,0 -6.149254,-2.2089 -2.507463,-2.209 -2.507463,-5.8508 0,-5.4328 3.940299,-9.7313 4.537313,-4.8955 11.70149,-4.8955 2.80597,0 5.01493,1.0149 2.26865,0.9552 2.26865,2.0895 z" />
    <path d="m 133.16397,1300.1791 q 0,0.8955 -0.53731,1.4328 -0.59701,0.6568 -1.49254,0.7762 l -6.32836,0.5373 -2.68656,16.3582 q -0.29851,1.5522 -2.38806,1.791 -1.91045,0 -1.91045,-1.9104 l 2.62687,-15.8806 -5.61194,0.5373 q -0.71642,0 -1.37314,-0.6567 -0.59701,-0.4776 -0.71642,-1.3135 0,-1.0746 0.47762,-1.6119 0.53731,-0.597 1.43283,-0.6567 l 6.50746,-0.4776 1.31344,-8.8955 q 0.2985,-1.6717 2.14925,-1.6717 0.71642,0 1.43284,0.5373 0.59701,0.6567 0.59701,1.612 l -1.19403,7.9403 5.67164,-0.4776 q 0.65672,0 1.31344,0.4776 0.59701,0.5373 0.71641,1.5522 z" />
    <path d="m 145.04447,1292.6567 q 0,1.9702 -1.67164,2.5672 -0.47761,0.1791 -1.19403,0.1791 -1.13433,0 -1.91045,-0.7164 -0.77612,-0.7165 -0.77612,-2.0299 0,-2.7463 2.68657,-2.7463 1.19403,0 2.08955,0.6568 0.77612,0.8358 0.77612,2.0895 z m -2.14925,8.1194 q 0,1.0746 -0.35821,3.403 l -2.50747,15.2239 q 0,0.7761 -0.77612,1.2537 -0.71641,0.5373 -1.49253,0.5373 -1.73135,0 -1.97015,-2.0298 l 0.41791,-2.9254 2.62686,-15.5821 q 0.29851,-1.6716 2.14926,-1.6716 1.91045,0 1.91045,1.791 z" />
    <path d="m 169.04444,1307.7612 q 0,5.5522 -3.58209,9.2537 -3.58209,3.7015 -9.73134,3.7015 -4.59702,0 -7.10448,-3.1642 -2.14925,-2.7462 -2.14925,-7.1641 0,-4.5374 3.34328,-7.9403 3.8209,-3.9403 9.85075,-3.9403 4.53731,0 7.16418,3.0447 2.20895,2.6269 2.20895,6.209 z m -4.0597,0.7164 q 0,-2.2089 -1.31343,-3.8806 -1.61194,-1.9701 -4.83582,-1.9701 -3.40299,0 -5.85075,2.5074 -2.14925,2.209 -2.14925,5.015 0,6.2686 5.73134,6.2686 3.46269,0 5.91045,-2.388 2.50746,-2.3881 2.50746,-5.5523 z" />
    <path d="m 193.88024,1306.9254 q 0,2.9253 -0.71642,6.0895 -0.2388,1.015 -0.83582,3.1045 -0.53731,2.0896 -1.07463,3.3433 -0.71641,1.6119 -1.79104,1.6119 -2.38806,0 -2.38806,-2.1492 1.01492,-3.4627 1.61194,-6.2687 0.77612,-3.6418 0.77612,-6.3283 0,-3.0448 -1.49254,-3.0448 -1.73134,0 -6.74627,3.3433 -5.07462,3.3432 -5.31343,4.8358 l -1.31343,7.9403 q -0.29851,1.6716 -2.20896,1.6716 -2.02985,0 -2.02985,-2.0298 l 3.16418,-19.1045 q 0.23881,-1.6716 2.32836,-1.6716 0.71642,0 1.37313,0.7761 0.47761,0.4179 0.47761,1.1343 v 0.2388 l -0.59701,3.9403 q 7.52239,-5.7313 12.71642,-5.7313 1.49254,0 2.74627,2.2686 1.31343,2.209 1.31343,6.0299 z" />
    <path d="m 249.52185,1306.209 q 0,5.194 -5.31343,9.6119 -5.07463,4.1791 -10.38806,4.1791 -0.65672,0 -1.19403,-0.6567 -0.59702,-0.597 -0.59702,-1.3732 0,-2.1492 1.79105,-2.1492 4.41791,0 8.1194,-3.6418 3.28358,-3.2239 3.28358,-6.4478 0,-3.3432 -2.56716,-3.3432 -1.91045,0 -6.08955,1.5522 -4.53732,1.791 -4.77612,3.2239 l -5.01493,29.791 q -0.29851,1.5523 -2.56716,1.5523 -0.77612,0 -1.31344,-0.8359 -0.47761,-0.7164 -0.47761,-1.6119 l 6.20896,-36 q 0.2985,-1.4925 0.77612,-1.9701 0.53731,-0.5374 1.79104,-0.5374 1.91045,0 1.79105,1.5523 l -0.11941,1.9701 q 4.71642,-2.8059 8.89553,-2.8059 2.86567,0 4.77611,1.2537 2.98508,1.9701 2.98508,6.6866 z m -16.53731,-7.0448 z" />
    <path d="m 273.52179,1307.7612 q 0,5.5522 -3.58209,9.2537 -3.58209,3.7015 -9.73134,3.7015 -4.59702,0 -7.10448,-3.1642 -2.14925,-2.7462 -2.14925,-7.1641 0,-4.5374 3.34328,-7.9403 3.82089,-3.9403 9.85075,-3.9403 4.53731,0 7.16417,3.0447 2.20896,2.6269 2.20896,6.209 z m -4.0597,0.7164 q 0,-2.2089 -1.31343,-3.8806 -1.61195,-1.9701 -4.83583,-1.9701 -3.40298,0 -5.85074,2.5074 -2.14926,2.209 -2.14926,5.015 0,6.2686 5.73135,6.2686 3.46268,0 5.91045,-2.388 2.50746,-2.3881 2.50746,-5.5523 z" />
    <path d="m 285.40236,1292.6567 q 0,1.9702 -1.67165,2.5672 -0.47761,0.1791 -1.19403,0.1791 -1.13432,0 -1.91044,-0.7164 -0.77612,-0.7165 -0.77612,-2.0299 0,-2.7463 2.68656,-2.7463 1.19403,0 2.08956,0.6568 0.77612,0.8358 0.77612,2.0895 z m -2.14926,8.1194 q 0,1.0746 -0.35821,3.403 l -2.50746,15.2239 q 0,0.7761 -0.77612,1.2537 -0.71642,0.5373 -1.49254,0.5373 -1.73134,0 -1.97015,-2.0298 l 0.41792,-2.9254 2.62686,-15.5821 q 0.29851,-1.6716 2.14925,-1.6716 1.91045,0 1.91045,1.791 z" />
    <path d="m 310.23816,1306.9254 q 0,2.9253 -0.71641,6.0895 -0.23881,1.015 -0.83582,3.1045 -0.53732,2.0896 -1.07463,3.3433 -0.71642,1.6119 -1.79105,1.6119 -2.38806,0 -2.38806,-2.1492 1.01493,-3.4627 1.61194,-6.2687 0.77612,-3.6418 0.77612,-6.3283 0,-3.0448 -1.49253,-3.0448 -1.73135,0 -6.74627,3.3433 -5.07463,3.3432 -5.31343,4.8358 l -1.31344,7.9403 q -0.2985,1.6716 -2.20895,1.6716 -2.02985,0 -2.02985,-2.0298 l 3.16418,-19.1045 q 0.2388,-1.6716 2.32835,-1.6716 0.71642,0 1.37314,0.7761 0.47761,0.4179 0.47761,1.1343 v 0.2388 l -0.59701,3.9403 q 7.52238,-5.7313 12.71641,-5.7313 1.49254,0 2.74627,2.2686 1.31343,2.209 1.31343,6.0299 z" />
    <path d="m 332.80523,1300.1791 q 0,0.8955 -0.53731,1.4328 -0.59702,0.6568 -1.49254,0.7762 l -6.32836,0.5373 -2.68656,16.3582 q -0.29851,1.5522 -2.38806,1.791 -1.91045,0 -1.91045,-1.9104 l 2.62686,-15.8806 -5.61194,0.5373 q -0.71641,0 -1.37313,-0.6567 -0.59702,-0.4776 -0.71642,-1.3135 0,-1.0746 0.47761,-1.6119 0.53732,-0.597 1.43284,-0.6567 l 6.50746,-0.4776 1.31343,-8.8955 q 0.29851,-1.6717 2.14926,-1.6717 0.71642,0 1.43283,0.5373 0.59702,0.6567 0.59702,1.612 l -1.19403,7.9403 5.67164,-0.4776 q 0.65672,0 1.31343,0.4776 0.59702,0.5373 0.71642,1.5522 z" />
    <path d="m 351.73052,1301.2537 q 0,1.015 -0.53732,1.7314 -0.65671,0.8358 -1.55223,0.8358 -0.41791,0 -2.74627,-0.8955 -2.26866,-0.9553 -3.8806,-0.9553 -2.68657,0 -2.86567,1.7314 0,1.3731 2.92537,2.6866 4.89552,2.2089 5.43284,2.5671 2.92537,1.8508 2.92537,4.597 0,4.2388 -2.86567,6.1493 -2.02985,1.3731 -5.07463,1.3731 -4.83582,0 -6.86567,-0.7761 -2.02985,-0.7761 -2.02985,-2.0895 0,-2.0896 1.79104,-2.4478 l 3.16418,0.8955 q 1.25374,0.3582 3.10448,0.3582 4.41791,0 4.41791,-2.9253 0,-1.3732 -2.86567,-2.8657 -5.07463,-2.5075 -5.37313,-2.7463 -2.92538,-1.9701 -2.92538,-4.5373 0,-2.9254 2.62687,-4.4776 2.14925,-1.194 5.31343,-1.194 2.14926,0 4.53731,0.6567 3.34329,0.8358 3.34329,2.3283 z" />
  </g>
  </g>

  
  <!-- The Border -->

</svg>
