<?xml version="1.0" encoding="UTF-8"?>
<svg width="1404px" height="1872px" viewBox="0 0 1404 1872" xmlns="http://www.w3.org/2000/svg" xmlns:xlink="http://www.w3.org/1999/xlink" version="1.1">
 <defs>
  <g id="Header">
    <g id="glassfigure" transform="scale(0.25 0.25) translate(150 50)">
			<path d="M478.482,448.601l-101.6-101.599c8.089-15.262,12.339-32.29,12.339-49.717c0-35.689-18.182-69.164-47.804-88.743V92.53
				c0-2.652-1.054-5.196-2.929-7.071l-82.529-82.53C254.083,1.054,251.54,0,248.888,0H24.371c-5.522,0-10,4.477-10,10v427.735
				c0,5.523,4.478,10,10,10h307.046c5.522,0,10-4.477,10-10v-37.722l92.825,92.825c5.908,5.908,13.764,9.162,22.119,9.162
				c8.356,0,16.212-3.254,22.12-9.162C490.678,480.642,490.678,460.797,478.482,448.601z M307.276,82.53h-48.387V34.143
				l24.193,24.193L307.276,82.53z M321.417,396.377v31.358H34.371V20h204.517v72.53c0,5.523,4.478,10,10,10h72.529v95.662
				l0.009,0.014c-12.214-4.741-25.275-7.215-38.499-7.215c-58.61,0-106.294,47.683-106.294,106.293s47.684,106.293,106.294,106.293
				c13.224,0,26.285-2.474,38.499-7.215L321.417,396.377z M328.948,370.291c-0.848,0.536-1.706,1.057-2.574,1.563
				c-13.131,7.67-28.154,11.724-43.446,11.724c-47.583,0-86.294-38.711-86.294-86.293c0-47.582,38.711-86.293,86.294-86.293
				c15.291,0,30.315,4.054,43.447,11.724c26.428,15.435,42.846,44.008,42.846,74.569c0,16.35-4.595,32.264-13.289,46.022
				C349.097,354.125,339.766,363.455,328.948,370.291z M464.339,478.696c-2.131,2.131-4.964,3.304-7.978,3.304
				c-3.014,0-5.847-1.173-7.977-3.304l-98.706-98.706l-0.008-0.001c5.856-4.74,11.221-10.104,15.961-15.96l0.001,0.008
				l98.707,98.707C468.737,467.142,468.737,474.298,464.339,478.696z"/>
			<path d="M246.838,238.403c-20.641,12.674-32.964,34.686-32.964,58.882c0,5.523,4.478,10,10,10c5.522,0,10-4.477,10-10
				c0-17.19,8.759-32.83,23.429-41.838c4.707-2.89,6.179-9.048,3.289-13.754C257.702,236.986,251.544,235.513,246.838,238.403z"/>
			<path d="M317.708,237.624c-10.52-6.145-22.547-9.392-34.781-9.392c-5.522,0-10,4.477-10,10s4.478,10,10,10
				c8.693,0,17.232,2.304,24.693,6.662c1.586,0.926,3.321,1.367,5.034,1.367c3.438,0,6.785-1.775,8.645-4.958
				C324.085,246.533,322.477,240.409,317.708,237.624z"/>
    </g>
    <rect rx="25" x="170" y="12" width="1224" height="113" stroke="white" stroke-width="1" fill="lightgrey"/>

    <g id="ReviewText" transform="translate(190 100)">
    	<path d="m 68.258706,-50.845771 q 0,8.159204 -6.965174,14.328358 -8.258706,7.462687 -26.069651,10.646766 10.149253,8.557214 20.099502,13.930348 12.338309,6.7661696 12.338309,8.7562194 0,3.9800995 -4.079602,3.9800995 -2.885573,0 -12.835821,-6.0696517 Q 38.40796,-12.736318 24.776119,-24.577114 l -1.791044,9.154228 q -0.895523,4.975125 -2.78607,14.2288561 -0.895522,3.5820896 -3.9801,3.5820896 -3.582089,0 -3.582089,-4.3781095 0,-0.3980099 2.38806,-12.7363182 l 1.791044,-9.253732 -4.577114,0.298508 q -1.492537,0.0995 -2.5870647,-0.995025 -0.8955224,-1.19403 -1.0945274,-2.487562 0,-2.587065 2.0895521,-3.58209 2.189055,-1.094527 7.562189,-1.094527 l 2.885572,-19.004975 q 0.79602,-2.985075 3.482587,-2.985075 4.079602,0 4.079602,3.9801 0,3.184079 -1.293532,10.447761 l -1.094527,6.965174 q 9.950248,0 20.79602,-4.278607 13.532338,-5.373134 13.532338,-14.129353 0,-4.278607 -6.766169,-6.368159 -4.37811,-1.393035 -10.248756,-1.393035 -11.641791,0 -19.502488,2.786069 l -17.9104478,6.36816 q -1.6915423,0 -2.3880597,-0.995025 -0.6965174,-1.094528 -0.7960199,-2.587065 -0.099502,-2.487562 2.5870647,-3.781094 8.0597017,-3.880597 18.3084577,-6.467662 11.044776,-2.885572 19.104478,-2.885572 9.950248,0 16.41791,2.786069 8.855721,3.880597 8.855721,12.537314 z" />
    	<path d="m 108.45767,-7.0646766 q 0,3.681592 -9.154227,6.66666665 -7.562189,2.38805975 -12.437811,2.38805975 -15.62189,0 -15.62189,-13.6318408 0,-8.756219 5.970149,-15.920398 6.766169,-8.258707 16.716418,-8.258707 6.368161,0 10.248761,2.587065 3.88059,2.587065 3.88059,5.870647 0,5.970149 -11.741292,12.039801 -9.850746,5.074627 -13.432835,5.074627 -2.78607,0 -2.78607,-3.383085 0,-1.094527 10.447761,-5.373134 10.547266,-4.37811 10.547266,-7.263682 0,-1.19403 -1.592042,-2.189054 -1.791045,-0.696518 -5.572139,-0.696518 -7.462687,0 -11.840796,5.273632 -3.9801,4.875622 -3.9801,12.039801 0,3.482587 1.99005,5.3731343 1.99005,1.8905473 6.368159,1.8905473 4.975125,0 9.253732,-1.9900498 l 9.552236,-4.4776118 q 3.18408,0 3.18408,3.9800994 z" />
    	<path d="m 148.05956,-31.542289 q -4.37811,8.656717 -13.43284,20.696518 -9.85075,12.8358208 -12.73632,12.8358208 -2.68657,0 -6.16915,-14.5273628 -3.6816,-14.825871 -3.6816,-20.298508 0,-3.582089 3.48259,-3.582089 2.58707,0 5.27363,11.840796 1.49254,7.562189 3.08458,15.1243777 3.08458,-3.2835817 7.9602,-9.7512437 6.46766,-8.557214 10.64677,-16.417911 z" />
    	<path d="m 167.86046,-45.572139 q 0,3.283582 -2.78607,4.278607 -0.79602,0.298507 -1.99005,0.298507 -1.89055,0 -3.18408,-1.19403 -1.29353,-1.19403 -1.29353,-3.383084 0,-4.577115 4.47761,-4.577115 1.99005,0 3.48259,1.094528 1.29353,1.393034 1.29353,3.482587 z m -3.58209,13.532338 q 0,1.791045 -0.59702,5.671642 l -4.1791,25.37313412 q 0,1.29353234 -1.29353,2.08955228 -1.19403,0.8955224 -2.48756,0.8955224 -2.88558,0 -3.28359,-3.3830846 l 0.69652,-4.8756219 4.37811,-25.9701493 q 0.49751,-2.78607 3.58209,-2.78607 3.18408,0 3.18408,2.985075 z" />
    	<path d="m 208.05942,-7.0646766 q 0,3.681592 -9.15423,6.66666665 -7.56219,2.38805975 -12.43781,2.38805975 -15.62189,0 -15.62189,-13.6318408 0,-8.756219 5.97015,-15.920398 6.76617,-8.258707 16.71641,-8.258707 6.36816,0 10.24876,2.587065 3.8806,2.587065 3.8806,5.870647 0,5.970149 -11.7413,12.039801 -9.85074,5.074627 -13.43283,5.074627 -2.78607,0 -2.78607,-3.383085 0,-1.094527 10.44776,-5.373134 10.54726,-4.37811 10.54726,-7.263682 0,-1.19403 -1.59204,-2.189054 -1.79104,-0.696518 -5.57214,-0.696518 -7.46268,0 -11.84079,5.273632 -3.9801,4.875622 -3.9801,12.039801 0,3.482587 1.99005,5.3731343 1.99005,1.8905473 6.36816,1.8905473 4.97512,0 9.25373,-1.9900498 l 9.55224,-4.4776118 q 3.18408,0 3.18408,3.9800994 z" />
    	<path d="m 278.90508,-31.542289 q -9.45273,15.820896 -17.01492,25.2736323 -6.46767,8.0597015 -9.15423,8.0597015 -3.68159,0 -7.66169,-22.3880598 -3.7811,4.975124 -10.74627,12.437811 -9.05473,9.7512438 -11.64179,9.7512438 -2.18906,0 -6.26866,-14.0298508 -3.9801,-14.129353 -3.9801,-20.597015 0,-3.582089 3.58209,-3.582089 3.28358,0 4.27861,7.661691 1.49253,12.338309 4.97512,19.7014927 8.0597,-7.1641787 13.23383,-14.4278607 6.06965,-8.557214 8.35821,-8.557214 2.98508,0 5.27363,9.751244 1.19403,6.467662 2.58707,12.8358207 l 2.68656,-3.0845767 q 2.78607,-3.084578 6.86568,-8.855722 5.67164,-7.960199 9.05472,-14.029851 z" />
    	<path d="m 339.89979,-33.631841 q 0,1.791045 -1.29354,3.084577 -1.19403,1.19403 -2.88557,1.19403 -4.2786,0 -4.2786,-4.278607 0,-4.179104 4.0796,-4.179104 4.37811,0 4.37811,4.179104 z m -2.68657,30.8457713 q 0,1.79104482 -1.19403,3.08457716 -1.09453,1.29353234 -2.98507,1.29353234 -4.17911,0 -4.17911,-4.3781095 0,-1.9900497 1.29353,-3.0845771 1.29354,-1.1940298 2.88558,-1.1940298 4.1791,0 4.1791,4.2786069 z" />
    </g>
    
  </g>
  <g id="Border">
    <rect x="0" y="0" width="1404" height="1872" stroke="black" stroke-width="10" fill="none"/>
  </g>
  <g id="Notes" transform="scale(0.75 0.75)" >
    <path stroke="black" stroke-width="2" fill="white" d="m 66.766169,-61.19403 q 0,8.855722 -2.587065,23.781095 -2.487562,14.527363 -6.467661,25.472636 -4.477612,12.33830895 -8.457712,12.33830895 -3.681592,0 -9.154229,-14.02985095 L 29.850746,-39.701493 q -5.572139,-14.129353 -8.059701,-14.129353 -3.383085,0 -7.164179,21.791045 -1.293533,7.462687 -4.179105,31.04477612 -0.39801,3.18407958 -4.2786068,3.18407958 -3.3830845,0 -3.3830845,-4.1791045 0,-9.1542292 3.1840796,-24.5771142 2.5870646,-12.935324 6.1691537,-24.278607 4.37811,-14.427861 8.059702,-14.427861 5.472637,0 12.636816,13.830846 4.477612,8.656716 10.945274,25.671642 5.373134,14.02985 5.671641,14.129353 0.497513,0 2.587065,-7.562189 0.895522,-3.383085 1.890547,-7.960199 0.497513,-2.487562 1.890548,-9.353234 1.890547,-9.950249 3.383084,-24.278607 0,-3.482587 4.37811,-3.980099 1.293532,0 2.288557,1.094527 0.895522,1.094527 0.895522,2.487562 z" />
    <path stroke="black" stroke-width="2" fill="white" d="m 106.76617,-20.39801 q 0,9.253731 -5.97015,15.4228856 -5.970152,6.1691543 -16.218908,6.1691543 -7.661692,0 -11.840796,-5.2736319 -3.58209,-4.5771144 -3.58209,-11.940298 0,-7.56219 5.57214,-13.233831 6.368159,-6.567165 16.41791,-6.567165 7.562189,0 11.940294,5.074627 3.6816,4.37811 3.6816,10.348259 z m -6.766172,1.19403 q 0,-3.681592 -2.189055,-6.467662 -2.686567,-3.283582 -8.059702,-3.283582 -5.671641,0 -9.751243,4.179105 -3.58209,3.681592 -3.58209,8.358209 0,10.4477607 9.552239,10.4477607 5.771144,0 9.850746,-3.9800995 4.179105,-3.9800992 4.179105,-9.2537312 z" />
    <path stroke="black" stroke-width="2" fill="white" d="m 144.37807,-33.034826 q 0,1.492537 -0.89552,2.38806 -0.99503,1.094527 -2.48757,1.293532 l -10.54726,0.895523 -4.47761,27.2636811 q -0.49751,2.5870647 -3.9801,2.9850747 -3.18408,0 -3.18408,-3.1840796 l 4.37811,-26.4676622 -9.35323,0.895523 q -1.19403,0 -2.28856,-1.094527 -0.99503,-0.79602 -1.19403,-2.189055 0,-1.791045 0.79602,-2.686567 0.89552,-0.995025 2.38806,-1.094528 l 10.84577,-0.79602 2.18905,-14.82587 q 0.49752,-2.78607 3.58209,-2.78607 1.19403,0 2.38806,0.895522 0.99503,1.094528 0.99503,2.686568 l -1.99005,13.23383 9.45273,-0.796019 q 1.09453,0 2.18906,0.796019 0.99502,0.895523 1.19403,2.587065 z" />
    <path stroke="black" stroke-width="2" fill="white" d="m 184.5769,-7.0646766 q 0,3.681592 -9.15422,6.66666665 -7.56219,2.38805975 -12.43782,2.38805975 -15.62189,0 -15.62189,-13.6318408 0,-8.756219 5.97015,-15.920398 6.76617,-8.258707 16.71642,-8.258707 6.36816,0 10.24876,2.587065 3.88059,2.587065 3.88059,5.870647 0,5.970149 -11.74129,12.039801 -9.85075,5.074627 -13.43284,5.074627 -2.78606,0 -2.78606,-3.383085 0,-1.094527 10.44776,-5.373134 10.54726,-4.37811 10.54726,-7.263682 0,-1.19403 -1.59204,-2.189054 -1.79104,-0.696518 -5.57214,-0.696518 -7.46269,0 -11.8408,5.273632 -3.98009,4.875622 -3.98009,12.039801 0,3.482587 1.99005,5.3731343 1.99004,1.8905473 6.36815,1.8905473 4.97513,0 9.25374,-1.9900498 l 9.55223,-4.4776118 q 3.18408,0 3.18408,3.9800994 z" />
    <path stroke="black" stroke-width="2" fill="white" d="m 216.11909,-31.243781 q 0,1.691542 -0.89553,2.885572 -1.09452,1.393035 -2.58706,1.393035 -0.69652,0 -4.57712,-1.492537 -3.78109,-1.59204 -6.46766,-1.59204 -4.47761,0 -4.77612,2.885572 0,2.288557 4.87563,4.477612 8.1592,3.681592 9.05472,4.278607 4.87562,3.084577 4.87562,7.661691 0,7.064677 -4.77612,10.24875656 -3.38308,2.28855724 -8.45771,2.28855724 -8.0597,0 -11.44278,-1.29353236 -3.38309,-1.29353234 -3.38309,-3.48258704 0,-3.4825871 2.98508,-4.079602 l 5.27363,1.4925373 q 2.08955,0.5970149 5.17413,0.5970149 7.36318,0 7.36318,-4.8756219 0,-2.2885567 -4.77612,-4.7761197 -8.45771,-4.179104 -8.95522,-4.577114 -4.87562,-3.283582 -4.87562,-7.562189 0,-4.875622 4.37811,-7.462687 3.58209,-1.990049 8.85572,-1.990049 3.58209,0 7.56219,1.094527 5.57214,1.393035 5.57214,3.880597 z" />
  </g>
  </defs>
  
  <rect rx="25" x="10" y="130" width="1384" height="1732" stroke="grey" stroke-width="1" fill="grey"/>

 	<!-- The HEADER -->
 	<use xlink:href="#Header" x="0" y="0" />

 	<!-- The Content -->
	<rect rx="25" x="20" y="200" width="1364" height="1653" stroke="white" stroke-width="1" fill="white"/>
  	<use xlink:href="#Notes" x="50" y="190" />
</svg>
