<?xml version="1.0" encoding="UTF-8"?>
<svg width="1404px" height="1872px" viewBox="0 0 1404 1872" xmlns="http://www.w3.org/2000/svg" xmlns:xlink="http://www.w3.org/1999/xlink" version="1.1"> 
 <defs>
  
  <g id="BoxAndLine">
    <rect x="0" y="0" width="50" height="50" stroke="black" stroke-width="2" fill="none"/>
    <line x1="100" y1="50" x2="1404" y2="50" stroke="black" stroke-width="2" />
  </g>
  <g id="Header">
 		<g>
    	<path d="m 88.258706,39.154229 q 0,8.159204 -6.965174,14.328358 -8.258706,7.462687 -26.069651,10.646766 10.149253,8.557214 20.099502,13.930348 12.338309,6.76617 12.338309,8.756219 0,3.9801 -4.079602,3.9801 -2.885573,0 -12.835821,-6.069652 Q 58.40796,77.263682 44.776119,65.422886 l -1.791044,9.154228 q -0.895523,4.975125 -2.78607,14.228856 -0.895522,3.58209 -3.9801,3.58209 -3.582089,0 -3.582089,-4.37811 0,-0.39801 2.38806,-12.736318 L 36.81592,66.0199 32.238806,66.318408 q -1.492537,0.0995 -2.587065,-0.995025 -0.895522,-1.19403 -1.094527,-2.487562 0,-2.587065 2.089552,-3.58209 2.189055,-1.094527 7.562189,-1.094527 l 2.885572,-19.004975 q 0.79602,-2.985075 3.482587,-2.985075 4.079602,0 4.079602,3.9801 0,3.184079 -1.293532,10.447761 l -1.094527,6.965174 q 9.950248,0 20.79602,-4.278607 13.532338,-5.373134 13.532338,-14.129353 0,-4.278607 -6.766169,-6.368159 -4.37811,-1.393035 -10.248756,-1.393035 -11.641791,0 -19.502488,2.786069 l -17.910448,6.36816 q -1.691542,0 -2.388059,-0.995025 -0.696518,-1.094528 -0.79602,-2.587065 -0.0995,-2.487562 2.587064,-3.781094 8.059702,-3.880597 18.308458,-6.467662 11.044776,-2.885572 19.104478,-2.885572 9.950248,0 16.41791,2.786069 8.855721,3.880597 8.855721,12.537314 z" />
    	<path d="m 128.45767,82.935323 q 0,3.681592 -9.15423,6.666667 -7.56219,2.38806 -12.43781,2.38806 -15.621888,0 -15.621888,-13.631841 0,-8.756219 5.970149,-15.920398 6.766169,-8.258707 16.716419,-8.258707 6.36816,0 10.24876,2.587065 3.88059,2.587065 3.88059,5.870647 0,5.970149 -11.74129,12.039801 -9.85075,5.074627 -13.43284,5.074627 -2.78607,0 -2.78607,-3.383085 0,-1.094527 10.44776,-5.373134 10.54727,-4.37811 10.54727,-7.263682 0,-1.19403 -1.59204,-2.189054 -1.79105,-0.696518 -5.57214,-0.696518 -7.46269,0 -11.8408,5.273632 -3.980097,4.875622 -3.980097,12.039801 0,3.482587 1.990047,5.373134 1.99005,1.890548 6.36816,1.890548 4.97513,0 9.25373,-1.99005 l 9.55224,-4.477612 q 3.18408,0 3.18408,3.980099 z" />
    	<path d="m 168.05956,58.457711 q -4.37811,8.656717 -13.43284,20.696518 -9.85075,12.835821 -12.73632,12.835821 -2.68657,0 -6.16915,-14.527363 -3.6816,-14.825871 -3.6816,-20.298508 0,-3.582089 3.48259,-3.582089 2.58707,0 5.27363,11.840796 1.49254,7.562189 3.08458,15.124378 3.08458,-3.283582 7.9602,-9.751244 6.46766,-8.557214 10.64677,-16.417911 z" />
    	<path d="m 187.86046,44.427861 q 0,3.283582 -2.78607,4.278607 -0.79602,0.298507 -1.99005,0.298507 -1.89055,0 -3.18408,-1.19403 -1.29353,-1.19403 -1.29353,-3.383084 0,-4.577115 4.47761,-4.577115 1.99005,0 3.48259,1.094528 1.29353,1.393034 1.29353,3.482587 z m -3.58209,13.532338 q 0,1.791045 -0.59702,5.671642 l -4.1791,25.373134 q 0,1.293532 -1.29353,2.089552 -1.19403,0.895523 -2.48756,0.895523 -2.88558,0 -3.28359,-3.383085 l 0.69652,-4.875622 4.37811,-25.970149 q 0.49751,-2.78607 3.58209,-2.78607 3.18408,0 3.18408,2.985075 z" />
    	<path d="m 228.05942,82.935323 q 0,3.681592 -9.15423,6.666667 -7.56219,2.38806 -12.43781,2.38806 -15.62189,0 -15.62189,-13.631841 0,-8.756219 5.97015,-15.920398 6.76617,-8.258707 16.71641,-8.258707 6.36816,0 10.24876,2.587065 3.8806,2.587065 3.8806,5.870647 0,5.970149 -11.7413,12.039801 -9.85074,5.074627 -13.43283,5.074627 -2.78607,0 -2.78607,-3.383085 0,-1.094527 10.44776,-5.373134 10.54726,-4.37811 10.54726,-7.263682 0,-1.19403 -1.59204,-2.189054 -1.79104,-0.696518 -5.57214,-0.696518 -7.46268,0 -11.84079,5.273632 -3.9801,4.875622 -3.9801,12.039801 0,3.482587 1.99005,5.373134 1.99005,1.890548 6.36816,1.890548 4.97512,0 9.25373,-1.99005 l 9.55224,-4.477612 q 3.18408,0 3.18408,3.980099 z" />
    	<path d="m 298.90508,58.457711 q -9.45273,15.820896 -17.01492,25.273632 -6.46767,8.059702 -9.15423,8.059702 -3.68159,0 -7.66169,-22.38806 -3.7811,4.975124 -10.74627,12.437811 -9.05473,9.751244 -11.64179,9.751244 -2.18906,0 -6.26866,-14.029851 -3.9801,-14.129353 -3.9801,-20.597015 0,-3.582089 3.58209,-3.582089 3.28358,0 4.27861,7.661691 1.49253,12.338309 4.97512,19.701493 8.0597,-7.164179 13.23383,-14.427861 6.06965,-8.557214 8.35821,-8.557214 2.98508,0 5.27363,9.751244 1.19403,6.467662 2.58707,12.835821 l 2.68656,-3.084577 q 2.78607,-3.084578 6.86568,-8.855722 5.67164,-7.960199 9.05472,-14.029851 z" />
    	<path d="m 359.89979,56.368159 q 0,1.791045 -1.29354,3.084577 -1.19403,1.19403 -2.88557,1.19403 -4.2786,0 -4.2786,-4.278607 0,-4.179104 4.0796,-4.179104 4.37811,0 4.37811,4.179104 z m -2.68657,30.845771 q 0,1.791045 -1.19403,3.084577 -1.09453,1.293533 -2.98507,1.293533 -4.17911,0 -4.17911,-4.37811 0,-1.990049 1.29353,-3.084577 1.29354,-1.19403 2.88558,-1.19403 4.1791,0 4.1791,4.278607 z" />
  	</g>
    <line x1="0" y1="120" x2="1404" y2="120" stroke="black" stroke-width="8" />
  </g>

 </defs>
  
 <!-- The HEADER -->
  <use xlink:href="#Header" x="0" y="0" />
 
</svg>
