<?xml version="1.0" encoding="UTF-8"?>
<svg width="1404px" height="1872px" viewBox="0 0 1404 1872" xmlns="http://www.w3.org/2000/svg" xmlns:xlink="http://www.w3.org/1999/xlink" version="1.1">
  <defs>
    <g id="Section">
      <rect x="0" y="0" width="1404" height="50" stroke="lichtgrey" stroke-width="0" fill="lightgrey"/>
      <line x1="0" y1="50" x2="1404" y2="50" stroke="black" stroke-width="2" />
      <line x1="0" y1="590" x2="1404" y2="590" stroke="black" stroke-width="8" />
    </g>
    <g id="Date">
		  <g>
    		<path d="m 786.76617,39.20398 q 0,14.527363 -10.24876,24.676617 -8.85572,8.457711 -24.0796,12.935323 -13.33333,3.781095 -28.0597,3.781095 -4.37811,0 -4.37811,-3.781095 0,-3.184079 3.48259,-4.079602 1.49253,-0.39801 5.97015,-0.39801 7.36318,-24.875621 7.36318,-41.791044 0,-1.691543 1.19403,-2.885572 1.19403,-1.293533 2.98507,-1.293533 3.38309,0 3.38309,3.9801 0,10.746268 -1.79105,20.39801 -1.69154,9.651741 -5.17412,21.094527 3.48258,0 10.84577,-2.089552 12.53731,-3.383085 20,-8.955224 10.94527,-8.059702 10.94527,-20.199005 0,-18.208955 -21.19403,-18.208955 -10.84577,0 -17.31343,1.890547 l -14.72637,4.278607 q -1.59204,0 -2.38806,-0.895522 -0.59702,-0.895523 -0.59702,-2.686568 0,-2.587064 2.58707,-3.980099 18.40796,-6.467662 33.23383,-6.467662 12.23881,0 19.801,6.169154 8.1592,6.567165 8.1592,18.507463 z" />
		    <path d="m 829.95025,48.159204 q -5.57214,17.014925 -5.57214,30.447761 0,2.985075 -3.38309,3.383085 -1.69154,0 -2.78607,-1.293533 -0.99502,-1.194029 -0.99502,-2.885572 -3.28358,3.9801 -11.64179,3.9801 -5.67164,0 -10.34826,-3.9801 -5.47264,-4.676617 -5.47264,-12.039801 0,-9.154229 7.16418,-15.124378 6.76617,-5.671642 16.1194,-5.671642 4.57712,0 5.97015,1.094528 Q 820,46.766169 820,48.557214 q 0,1.393035 -0.79602,2.487562 -0.89552,0.895523 -3.28358,0.895523 -7.26369,0 -12.53732,3.084577 -6.36816,3.781094 -6.36816,10.547263 0,4.975125 3.28358,7.263682 2.28856,1.59204 5.47264,1.59204 6.26866,0 11.64179,-4.278607 2.88557,-16.019901 5.07463,-21.293533 1.59204,-3.880597 4.0796,-3.880597 3.18408,0 3.38309,3.18408 z" />
		    <path d="m 867.56201,46.965174 q 0,1.492537 -0.89553,2.38806 -0.99502,1.094527 -2.48756,1.293532 l -10.54726,0.895523 -4.47761,27.263681 q -0.49752,2.587065 -3.9801,2.985075 -3.18408,0 -3.18408,-3.18408 l 4.37811,-26.467662 -9.35324,0.895523 q -1.19403,0 -2.28855,-1.094527 -0.99503,-0.79602 -1.19403,-2.189055 0,-1.791045 0.79602,-2.686567 0.89552,-0.995025 2.38805,-1.094528 l 10.84578,-0.79602 2.18905,-14.82587 q 0.49751,-2.78607 3.58209,-2.78607 1.19403,0 2.38806,0.895522 0.99502,1.094528 0.99502,2.686568 l -1.99004,13.23383 9.45273,-0.796019 q 1.09453,0 2.18906,0.796019 0.99502,0.895523 1.19403,2.587065 z" />
		    <path d="m 907.76083,72.935323 q 0,3.681592 -9.15423,6.666667 -7.56218,2.38806 -12.43781,2.38806 -15.62189,0 -15.62189,-13.631841 0,-8.756219 5.97015,-15.920398 6.76617,-8.258707 16.71642,-8.258707 6.36816,0 10.24876,2.587065 3.88059,2.587065 3.88059,5.870647 0,5.970149 -11.74129,12.039801 -9.85075,5.074627 -13.43284,5.074627 -2.78607,0 -2.78607,-3.383085 0,-1.094527 10.44777,-5.373134 10.54726,-4.37811 10.54726,-7.263682 0,-1.19403 -1.59204,-2.189054 -1.79105,-0.696518 -5.57214,-0.696518 -7.46269,0 -11.8408,5.273632 -3.9801,4.875622 -3.9801,12.039801 0,3.482587 1.99005,5.373134 1.99005,1.890548 6.36816,1.890548 4.97513,0 9.25374,-1.99005 l 9.55223,-4.477612 q 3.18408,0 3.18408,3.980099 z" />
		    <path d="m 968.75561,46.368159 q 0,1.791045 -1.29354,3.084577 -1.19403,1.19403 -2.88557,1.19403 -4.2786,0 -4.2786,-4.278607 0,-4.179104 4.0796,-4.179104 4.37811,0 4.37811,4.179104 z m -2.68657,30.845771 q 0,1.791045 -1.19403,3.084577 -1.09453,1.293533 -2.98507,1.293533 -4.17911,0 -4.17911,-4.37811 0,-1.990049 1.29353,-3.084577 1.29354,-1.19403 2.88558,-1.19403 4.1791,0 4.1791,4.278607 z" />
  		</g>
      <line x1="0" y1="100" x2="1404" y2="100" stroke="black" stroke-width="8" />
    </g>
    <g id="Border">
      <rect x="0" y="0" width="1404" height="1872" stroke="black" stroke-width="10" fill="none"/>
    </g>
  </defs>
      

  <!-- The HEADER -->

  <use xlink:href="#Date" x="0" y="0" />
  <use xlink:href="#Section" x="0" y="104" />
  <use xlink:href="#Section" x="0" y="698" />
  <use xlink:href="#Section" x="0" y="1292" />
  
  <!-- The Border -->
  <use xlink:href="#Border" x="0" y="0" />

</svg>
