<?xml version="1.0" encoding="UTF-8"?>
<svg width="1404px" height="1872px" viewBox="0 0 1404 1872" xmlns="http://www.w3.org/2000/svg" xmlns:xlink="http://www.w3.org/1999/xlink" version="1.1">
 <defs>
  <g id="BoxAndLine">
    <rect x="0" y="0" width="50" height="50" stroke="black" stroke-width="2" fill="none"/>
    <line x1="100" y1="50" x2="1404" y2="50" stroke="black" stroke-width="2" />
  </g>
  <g id="Header">
    <g>
      <path d="m 71.243781,31.99005 q 0,3.184079 -3.880597,3.582089 L 59.60199,32.985075 q -4.179104,-1.393035 -8.159204,-1.393035 -5.273632,0 -9.054726,1.99005 -4.77612,2.388059 -4.77612,7.164179 0,4.179104 7.462687,7.462686 11.741293,5.273632 13.930348,6.766169 7.661692,5.671642 7.661692,14.825871 0,11.442786 -8.258707,16.81592 -6.766169,4.37811 -17.21393,4.37811 -6.268657,0 -12.636816,-2.686567 -7.164179,-3.084577 -7.164179,-7.363184 0,-1.393035 0.995025,-2.487563 1.094527,-1.094527 2.487562,-1.094527 0.0995,0 5.771144,2.885572 5.771144,2.885572 10.945274,2.885572 7.363184,0 11.940298,-2.885572 Q 59.004975,76.865672 59.004975,70 q 0,-7.562189 -7.462686,-10.845771 L 37.61194,53.18408 q -7.562189,-4.37811 -7.562189,-12.835821 0,-7.462687 6.567164,-12.139304 5.870647,-4.179104 14.626866,-4.179104 6.268657,0 13.233831,2.288557 6.766169,2.189055 6.766169,5.671642 z" />
      <path d="m 114.22867,67.014925 q 0,8.656717 -8.85573,16.019901 Q 96.915233,90 88.059512,90 q -1.094528,0 -1.99005,-1.094527 -0.995025,-0.995025 -0.995025,-2.288558 0,-3.582089 2.985075,-3.582089 7.363184,0 13.532338,-6.069652 5.47264,-5.373134 5.47264,-10.746269 0,-5.572139 -4.27861,-5.572139 -3.18408,0 -10.149254,2.587065 -7.562189,2.985074 -7.960199,5.373134 l -8.358209,49.651745 q -0.497512,2.58706 -4.278607,2.58706 -1.293532,0 -2.189055,-1.39303 -0.796019,-1.19403 -0.796019,-2.68657 L 79.402795,56.766169 q 0.497513,-2.487562 1.293533,-3.283582 0.895522,-0.895522 2.985074,-0.895522 3.18408,0 2.985075,2.587064 l -0.199005,3.283582 q 7.860696,-4.676616 14.825868,-4.676616 4.77612,0 7.9602,2.089552 4.97513,3.283582 4.97513,11.144278 z M 86.666477,55.273632 Z" />
      <path d="m 155.42258,57.960199 q 0,2.78607 -1.79104,3.58209 -1.19403,0.597014 -3.7811,0.597014 -9.15422,0 -17.11442,6.467662 -5.97015,4.77612 -7.26369,8.756219 l -1.79104,11.840796 q -0.39801,2.587065 -3.68159,2.587065 -3.08458,0 -3.58209,-3.383085 l 5.07463,-30.447761 q 0.49751,-3.18408 3.48258,-3.18408 3.48259,0 3.48259,3.781095 l -0.89552,5.572139 q 5.47263,-5.074627 10.24875,-6.766169 6.06966,-2.189055 13.83085,-2.189055 3.78109,0 3.78109,2.78607 z" />
      <path d="m 175.22351,44.427861 q 0,3.283582 -2.78607,4.278607 -0.79602,0.298507 -1.99005,0.298507 -1.89055,0 -3.18408,-1.19403 -1.29353,-1.19403 -1.29353,-3.383084 0,-4.577115 4.47761,-4.577115 1.99005,0 3.48259,1.094528 1.29353,1.393034 1.29353,3.482587 z m -3.58209,13.532338 q 0,1.791045 -0.59701,5.671642 l -4.17911,25.373134 q 0,1.293532 -1.29353,2.089552 -1.19403,0.895523 -2.48756,0.895523 -2.88557,0 -3.28358,-3.383085 l 0.69651,-4.875622 4.37811,-25.970149 q 0.49751,-2.78607 3.58209,-2.78607 3.18408,0 3.18408,2.985075 z" />
      <path d="m 216.6165,68.208955 q 0,4.875622 -1.19403,10.149254 -0.39801,1.691542 -1.39303,5.174129 -0.89553,3.482587 -1.79105,5.57214 -1.19403,2.686567 -2.98507,2.686567 -3.9801,0 -3.9801,-3.58209 1.69154,-5.771144 2.68656,-10.447761 1.29354,-6.069652 1.29354,-10.547264 0,-5.074627 -2.48757,-5.074627 -2.88557,0 -11.24378,5.57214 -8.45771,5.572139 -8.85572,8.059701 l -2.18905,13.233831 q -0.49752,2.78607 -3.6816,2.78607 -3.38308,0 -3.38308,-3.383085 l 5.27363,-31.840796 q 0.39801,-2.786069 3.8806,-2.786069 1.19403,0 2.28856,1.293532 0.79602,0.696517 0.79602,1.890547 v 0.39801 l -0.99503,6.567164 q 12.53731,-9.552239 21.19403,-9.552239 2.48756,0 4.57712,3.781095 2.18905,3.681592 2.18905,10.049751 z" />
      <path d="m 254.2283,56.965174 q 0,1.492537 -0.89552,2.38806 -0.99502,1.094527 -2.48756,1.293532 l -10.54726,0.895523 -4.47762,27.263681 q -0.49751,2.587065 -3.9801,2.985075 -3.18408,0 -3.18408,-3.18408 l 4.37811,-26.467662 -9.35323,0.895523 q -1.19403,0 -2.28856,-1.094527 -0.99502,-0.79602 -1.19403,-2.189055 0,-1.791045 0.79602,-2.686567 0.89553,-0.995025 2.38806,-1.094528 l 10.84577,-0.79602 2.18906,-14.82587 q 0.49751,-2.78607 3.58209,-2.78607 1.19403,0 2.38806,0.895522 0.99502,1.094528 0.99502,2.686568 l -1.99005,13.23383 9.45274,-0.796019 q 1.09453,0 2.18905,0.796019 0.99503,0.895523 1.19403,2.587065 z" />
      <path d="m 315.223,56.368159 q 0,1.791045 -1.29353,3.084577 -1.19403,1.19403 -2.88558,1.19403 -4.2786,0 -4.2786,-4.278607 0,-4.179104 4.0796,-4.179104 4.37811,0 4.37811,4.179104 z m -2.68657,30.845771 q 0,1.791045 -1.19403,3.084577 -1.09453,1.293533 -2.98507,1.293533 -4.17911,0 -4.17911,-4.37811 0,-1.990049 1.29353,-3.084577 1.29354,-1.19403 2.88558,-1.19403 4.1791,0 4.1791,4.278607 z" />
    </g>
    <line x1="0" y1="120" x2="1404" y2="120" stroke="black" stroke-width="8" />
  </g>
  <g id="Border">
    <rect x="0" y="0" width="1404" height="1872" stroke="black" stroke-width="10" fill="none"/>
  </g>
 </defs>
  
 <!-- The HEADER -->
  <use xlink:href="#Header" x="0" y="0" />
 <!-- The Border -->
  <use xlink:href="#Border" x="0" y="0" id="use35" />
</svg>
