<?xml version="1.0" encoding="UTF-8"?>
<svg width="1404px" height="1872px" viewBox="0 0 1404 1872" xmlns="http://www.w3.org/2000/svg" xmlns:xlink="http://www.w3.org/1999/xlink" version="1.1">
 <defs>
  <g id="Header">
    <g id="sprintfigure" transform="scale(0.25 0.25) translate(90 20)">
	    <path id="XMLID_58_" d="M487.652,134.923c-4.818-8.098-15.295-10.749-23.41-5.961l-57.391,34.111l-7.147-20.398 c5.333-16.806-2.604-35.251-19.119-42.505c-7.135-3.149-20.197-9.487-28.36-9.728l-76.96,1.719 c-8.418,0.192-15.44,6.476-16.564,14.822l-8.58,64.211l27.717-16.469c3.004-1.798,6.216-2.885,9.461-3.623l3.358-25.096 l24.311-0.539l-11.439,26.052c7.663,2.226,14.541,7.158,18.927,14.549c8.803,14.854,4.368,33.764-9.69,43.381 c-3.663,2.546-33.258,19.995-37.21,22.349l-12.677,61.834L205.711,276.6c-5.995-1.775-12.052-0.617-16.999,2.419l34.076,30.768 c5.738,5.183,9.32,12.01,10.926,19.313l39.202,11.68c11.923,3.527,24.263-3.896,26.77-16.026l11.471-55.903l42.626,36.809 L333.04,416.078c-2.168,11.496,5.398,22.55,16.87,24.71c11.52,2.153,22.559-5.421,24.712-16.885l22.926-122.076 c1.366-7.248-1.14-14.669-6.619-19.618l-37.29-33.685l26.091-59.432l1.752,4.98c3.632,10.379,15.746,14.476,24.857,9.054 l75.353-44.779C489.806,153.52,492.472,143.037,487.652,134.923z"/>
	    <path id="XMLID_59_" d="M175.118,287.574l6.555-14.918l11.393-25.947l8.162-18.582l1.752,5.005 c3.598,10.225,15.617,14.516,24.855,9.046l75.354-44.779c8.128-4.829,10.797-15.312,5.961-23.425 c-4.821-8.098-15.279-10.742-23.409-5.961l-57.407,34.109l-7.133-20.398c5.316-16.805-2.604-35.25-19.12-42.504 c-1.224-0.539-13.563-5.962-13.674-6.01c-3.392-1.494-11.136-3.799-16.743-3.671l-74.887,1.67 c-8.435,0.195-15.457,6.476-16.564,14.823l-10.233,76.59c-1.238,9.358,5.317,17.955,14.683,19.201 c9.369,1.276,17.963-5.368,19.201-14.67l8.291-62.098l24.309-0.54l-35.268,80.327c-3.213,7.327-4.145,15.016-3.406,22.444 l-13.432,65.393l-57.148-17.03c-11.199-3.311-22.977,3.037-26.32,14.243c-3.341,11.19,3.037,22.976,14.236,26.317l79.274,23.619 c11.761,3.51,24.26-3.792,26.769-16.027c9.719-47.301,7.309-35.531,11.473-55.904l42.624,36.817l-20.728,110.419 c-2.15,11.48,5.415,22.533,16.887,24.703c11.535,2.152,22.543-5.456,24.696-16.903l22.911-122.068 c1.364-7.246-1.143-14.669-6.604-19.61L175.118,287.574z"/>
	    <path id="XMLID_60_" d="M199.62,126.704c20.423,8.99,44.459-0.225,53.521-20.846c9.028-20.541-0.324-44.498-20.855-53.519 c-20.551-9.029-44.49,0.313-53.52,20.855C169.528,94.209,179.861,118.029,199.62,126.704z"/>
	    <path id="XMLID_61_" d="M378.124,87.655c20.533,9.029,44.506-0.298,53.535-20.847c9.029-20.543-0.322-44.497-20.855-53.519 c-20.565-9.023-44.521,0.313-53.533,20.854C348.239,54.685,357.589,78.632,378.124,87.655z"/>
    </g>
    <rect rx="25" x="170" y="12" width="1224" height="113" stroke="white" stroke-width="1" fill="lightgrey"/>

    <g transform="translate(170 0)">
      <path d="m 71.243781,31.99005 q 0,3.184079 -3.880597,3.582089 L 59.60199,32.985075 q -4.179104,-1.393035 -8.159204,-1.393035 -5.273632,0 -9.054726,1.99005 -4.77612,2.388059 -4.77612,7.164179 0,4.179104 7.462687,7.462686 11.741293,5.273632 13.930348,6.766169 7.661692,5.671642 7.661692,14.825871 0,11.442786 -8.258707,16.81592 -6.766169,4.37811 -17.21393,4.37811 -6.268657,0 -12.636816,-2.686567 -7.164179,-3.084577 -7.164179,-7.363184 0,-1.393035 0.995025,-2.487563 1.094527,-1.094527 2.487562,-1.094527 0.0995,0 5.771144,2.885572 5.771144,2.885572 10.945274,2.885572 7.363184,0 11.940298,-2.885572 Q 59.004975,76.865672 59.004975,70 q 0,-7.562189 -7.462686,-10.845771 L 37.61194,53.18408 q -7.562189,-4.37811 -7.562189,-12.835821 0,-7.462687 6.567164,-12.139304 5.870647,-4.179104 14.626866,-4.179104 6.268657,0 13.233831,2.288557 6.766169,2.189055 6.766169,5.671642 z" />
      <path d="m 114.22867,67.014925 q 0,8.656717 -8.85573,16.019901 Q 96.915233,90 88.059512,90 q -1.094528,0 -1.99005,-1.094527 -0.995025,-0.995025 -0.995025,-2.288558 0,-3.582089 2.985075,-3.582089 7.363184,0 13.532338,-6.069652 5.47264,-5.373134 5.47264,-10.746269 0,-5.572139 -4.27861,-5.572139 -3.18408,0 -10.149254,2.587065 -7.562189,2.985074 -7.960199,5.373134 l -8.358209,49.651745 q -0.497512,2.58706 -4.278607,2.58706 -1.293532,0 -2.189055,-1.39303 -0.796019,-1.19403 -0.796019,-2.68657 L 79.402795,56.766169 q 0.497513,-2.487562 1.293533,-3.283582 0.895522,-0.895522 2.985074,-0.895522 3.18408,0 2.985075,2.587064 l -0.199005,3.283582 q 7.860696,-4.676616 14.825868,-4.676616 4.77612,0 7.9602,2.089552 4.97513,3.283582 4.97513,11.144278 z M 86.666477,55.273632 Z" />
      <path d="m 155.42258,57.960199 q 0,2.78607 -1.79104,3.58209 -1.19403,0.597014 -3.7811,0.597014 -9.15422,0 -17.11442,6.467662 -5.97015,4.77612 -7.26369,8.756219 l -1.79104,11.840796 q -0.39801,2.587065 -3.68159,2.587065 -3.08458,0 -3.58209,-3.383085 l 5.07463,-30.447761 q 0.49751,-3.18408 3.48258,-3.18408 3.48259,0 3.48259,3.781095 l -0.89552,5.572139 q 5.47263,-5.074627 10.24875,-6.766169 6.06966,-2.189055 13.83085,-2.189055 3.78109,0 3.78109,2.78607 z" />
      <path d="m 175.22351,44.427861 q 0,3.283582 -2.78607,4.278607 -0.79602,0.298507 -1.99005,0.298507 -1.89055,0 -3.18408,-1.19403 -1.29353,-1.19403 -1.29353,-3.383084 0,-4.577115 4.47761,-4.577115 1.99005,0 3.48259,1.094528 1.29353,1.393034 1.29353,3.482587 z m -3.58209,13.532338 q 0,1.791045 -0.59701,5.671642 l -4.17911,25.373134 q 0,1.293532 -1.29353,2.089552 -1.19403,0.895523 -2.48756,0.895523 -2.88557,0 -3.28358,-3.383085 l 0.69651,-4.875622 4.37811,-25.970149 q 0.49751,-2.78607 3.58209,-2.78607 3.18408,0 3.18408,2.985075 z" />
      <path d="m 216.6165,68.208955 q 0,4.875622 -1.19403,10.149254 -0.39801,1.691542 -1.39303,5.174129 -0.89553,3.482587 -1.79105,5.57214 -1.19403,2.686567 -2.98507,2.686567 -3.9801,0 -3.9801,-3.58209 1.69154,-5.771144 2.68656,-10.447761 1.29354,-6.069652 1.29354,-10.547264 0,-5.074627 -2.48757,-5.074627 -2.88557,0 -11.24378,5.57214 -8.45771,5.572139 -8.85572,8.059701 l -2.18905,13.233831 q -0.49752,2.78607 -3.6816,2.78607 -3.38308,0 -3.38308,-3.383085 l 5.27363,-31.840796 q 0.39801,-2.786069 3.8806,-2.786069 1.19403,0 2.28856,1.293532 0.79602,0.696517 0.79602,1.890547 v 0.39801 l -0.99503,6.567164 q 12.53731,-9.552239 21.19403,-9.552239 2.48756,0 4.57712,3.781095 2.18905,3.681592 2.18905,10.049751 z" />
      <path d="m 254.2283,56.965174 q 0,1.492537 -0.89552,2.38806 -0.99502,1.094527 -2.48756,1.293532 l -10.54726,0.895523 -4.47762,27.263681 q -0.49751,2.587065 -3.9801,2.985075 -3.18408,0 -3.18408,-3.18408 l 4.37811,-26.467662 -9.35323,0.895523 q -1.19403,0 -2.28856,-1.094527 -0.99502,-0.79602 -1.19403,-2.189055 0,-1.791045 0.79602,-2.686567 0.89553,-0.995025 2.38806,-1.094528 l 10.84577,-0.79602 2.18906,-14.82587 q 0.49751,-2.78607 3.58209,-2.78607 1.19403,0 2.38806,0.895522 0.99502,1.094528 0.99502,2.686568 l -1.99005,13.23383 9.45274,-0.796019 q 1.09453,0 2.18905,0.796019 0.99503,0.895523 1.19403,2.587065 z" />
      <path d="m 315.223,56.368159 q 0,1.791045 -1.29353,3.084577 -1.19403,1.19403 -2.88558,1.19403 -4.2786,0 -4.2786,-4.278607 0,-4.179104 4.0796,-4.179104 4.37811,0 4.37811,4.179104 z m -2.68657,30.845771 q 0,1.791045 -1.19403,3.084577 -1.09453,1.293533 -2.98507,1.293533 -4.17911,0 -4.17911,-4.37811 0,-1.990049 1.29353,-3.084577 1.29354,-1.19403 2.88558,-1.19403 4.1791,0 4.1791,4.278607 z" />
    </g>
    
  </g>
  <g id="Border">
    <rect x="0" y="0" width="1404" height="1872" stroke="black" stroke-width="10" fill="none"/>
  </g>
  <g id="Notes" transform="scale(0.75 0.75)" >
    <path stroke="black" stroke-width="2" fill="white" d="m 66.766169,-61.19403 q 0,8.855722 -2.587065,23.781095 -2.487562,14.527363 -6.467661,25.472636 -4.477612,12.33830895 -8.457712,12.33830895 -3.681592,0 -9.154229,-14.02985095 L 29.850746,-39.701493 q -5.572139,-14.129353 -8.059701,-14.129353 -3.383085,0 -7.164179,21.791045 -1.293533,7.462687 -4.179105,31.04477612 -0.39801,3.18407958 -4.2786068,3.18407958 -3.3830845,0 -3.3830845,-4.1791045 0,-9.1542292 3.1840796,-24.5771142 2.5870646,-12.935324 6.1691537,-24.278607 4.37811,-14.427861 8.059702,-14.427861 5.472637,0 12.636816,13.830846 4.477612,8.656716 10.945274,25.671642 5.373134,14.02985 5.671641,14.129353 0.497513,0 2.587065,-7.562189 0.895522,-3.383085 1.890547,-7.960199 0.497513,-2.487562 1.890548,-9.353234 1.890547,-9.950249 3.383084,-24.278607 0,-3.482587 4.37811,-3.980099 1.293532,0 2.288557,1.094527 0.895522,1.094527 0.895522,2.487562 z" />
    <path stroke="black" stroke-width="2" fill="white" d="m 106.76617,-20.39801 q 0,9.253731 -5.97015,15.4228856 -5.970152,6.1691543 -16.218908,6.1691543 -7.661692,0 -11.840796,-5.2736319 -3.58209,-4.5771144 -3.58209,-11.940298 0,-7.56219 5.57214,-13.233831 6.368159,-6.567165 16.41791,-6.567165 7.562189,0 11.940294,5.074627 3.6816,4.37811 3.6816,10.348259 z m -6.766172,1.19403 q 0,-3.681592 -2.189055,-6.467662 -2.686567,-3.283582 -8.059702,-3.283582 -5.671641,0 -9.751243,4.179105 -3.58209,3.681592 -3.58209,8.358209 0,10.4477607 9.552239,10.4477607 5.771144,0 9.850746,-3.9800995 4.179105,-3.9800992 4.179105,-9.2537312 z" />
    <path stroke="black" stroke-width="2" fill="white" d="m 144.37807,-33.034826 q 0,1.492537 -0.89552,2.38806 -0.99503,1.094527 -2.48757,1.293532 l -10.54726,0.895523 -4.47761,27.2636811 q -0.49751,2.5870647 -3.9801,2.9850747 -3.18408,0 -3.18408,-3.1840796 l 4.37811,-26.4676622 -9.35323,0.895523 q -1.19403,0 -2.28856,-1.094527 -0.99503,-0.79602 -1.19403,-2.189055 0,-1.791045 0.79602,-2.686567 0.89552,-0.995025 2.38806,-1.094528 l 10.84577,-0.79602 2.18905,-14.82587 q 0.49752,-2.78607 3.58209,-2.78607 1.19403,0 2.38806,0.895522 0.99503,1.094528 0.99503,2.686568 l -1.99005,13.23383 9.45273,-0.796019 q 1.09453,0 2.18906,0.796019 0.99502,0.895523 1.19403,2.587065 z" />
    <path stroke="black" stroke-width="2" fill="white" d="m 184.5769,-7.0646766 q 0,3.681592 -9.15422,6.66666665 -7.56219,2.38805975 -12.43782,2.38805975 -15.62189,0 -15.62189,-13.6318408 0,-8.756219 5.97015,-15.920398 6.76617,-8.258707 16.71642,-8.258707 6.36816,0 10.24876,2.587065 3.88059,2.587065 3.88059,5.870647 0,5.970149 -11.74129,12.039801 -9.85075,5.074627 -13.43284,5.074627 -2.78606,0 -2.78606,-3.383085 0,-1.094527 10.44776,-5.373134 10.54726,-4.37811 10.54726,-7.263682 0,-1.19403 -1.59204,-2.189054 -1.79104,-0.696518 -5.57214,-0.696518 -7.46269,0 -11.8408,5.273632 -3.98009,4.875622 -3.98009,12.039801 0,3.482587 1.99005,5.3731343 1.99004,1.8905473 6.36815,1.8905473 4.97513,0 9.25374,-1.9900498 l 9.55223,-4.4776118 q 3.18408,0 3.18408,3.9800994 z" />
    <path stroke="black" stroke-width="2" fill="white" d="m 216.11909,-31.243781 q 0,1.691542 -0.89553,2.885572 -1.09452,1.393035 -2.58706,1.393035 -0.69652,0 -4.57712,-1.492537 -3.78109,-1.59204 -6.46766,-1.59204 -4.47761,0 -4.77612,2.885572 0,2.288557 4.87563,4.477612 8.1592,3.681592 9.05472,4.278607 4.87562,3.084577 4.87562,7.661691 0,7.064677 -4.77612,10.24875656 -3.38308,2.28855724 -8.45771,2.28855724 -8.0597,0 -11.44278,-1.29353236 -3.38309,-1.29353234 -3.38309,-3.48258704 0,-3.4825871 2.98508,-4.079602 l 5.27363,1.4925373 q 2.08955,0.5970149 5.17413,0.5970149 7.36318,0 7.36318,-4.8756219 0,-2.2885567 -4.77612,-4.7761197 -8.45771,-4.179104 -8.95522,-4.577114 -4.87562,-3.283582 -4.87562,-7.562189 0,-4.875622 4.37811,-7.462687 3.58209,-1.990049 8.85572,-1.990049 3.58209,0 7.56219,1.094527 5.57214,1.393035 5.57214,3.880597 z" />
  </g>
 </defs>
  

 <!-- The HEADER -->
  <use xlink:href="#Header" x="0" y="0" />
  <rect rx="25" x="10" y="130" width="1384" height="1732" stroke="grey" stroke-width="1" fill="grey"/>

 <!-- The Content -->
  <rect rx="25" x="20" y="200" width="1364" height="1653" stroke="white" stroke-width="1" fill="white"/>
  <use xlink:href="#Notes" x="50" y="190" />
</svg>
