<?xml version="1.0" encoding="UTF-8"?>
<svg width="1404px" height="1872px" viewBox="0 0 1404 1872" xmlns="http://www.w3.org/2000/svg" xmlns:xlink="http://www.w3.org/1999/xlink" version="1.1">
  <defs>
    <g id="Header">
      <rect rx="25" x="780" y="25" width="614" height="115" stroke="white" stroke-width="1" fill="lightgrey"/>
      <rect rx="25" x="150" y="25" width="614" height="115" stroke="white" stroke-width="1" fill="lightgrey"/>

      <g id="datetxt">
        <path d="m 850.07463,69.402985 q 0,10.895522 -7.68657,18.507463 -6.64179,6.343283 -18.0597,9.701492 -10,2.83582 -21.04478,2.83582 -3.28358,0 -3.28358,-2.83582 0,-2.388059 2.61194,-3.059701 1.1194,-0.298508 4.47761,-0.298508 5.52239,-18.656716 5.52239,-31.343283 0,-1.268657 0.89552,-2.164179 0.89553,-0.97015 2.23881,-0.97015 2.53731,0 2.53731,2.985075 0,8.059702 -1.34328,15.298507 -1.26866,7.238806 -3.8806,15.820896 2.61194,0 8.13433,-1.567164 9.40298,-2.537314 15,-6.716418 8.20896,-6.044776 8.20896,-15.149254 0,-13.656716 -15.89553,-13.656716 -8.13433,0 -12.98507,1.41791 l -11.04478,3.208955 q -1.19403,0 -1.79104,-0.671641 -0.44776,-0.671642 -0.44776,-2.014926 0,-1.940298 1.94029,-2.985074 13.80597,-4.850747 24.92538,-4.850747 9.1791,0 14.85074,4.626866 6.11941,4.925373 6.11941,13.880597 z" />
        <path d="m 882.46268,76.119403 q -4.1791,12.761194 -4.1791,22.835821 0,2.238806 -2.53732,2.537316 -1.26865,0 -2.08955,-0.97015 -0.74627,-0.895524 -0.74627,-2.164181 -2.46268,2.985071 -8.73134,2.985071 -4.25373,0 -7.76119,-2.985071 -4.10448,-3.507463 -4.10448,-9.029851 0,-6.865671 5.37313,-11.343283 5.07463,-4.253732 12.08956,-4.253732 3.43283,0 4.47761,0.820896 Q 875,75.074627 875,76.41791 q 0,1.044777 -0.59702,1.865672 -0.67164,0.671642 -2.46269,0.671642 -5.44776,0 -9.40298,2.313433 -4.77612,2.835821 -4.77612,7.910447 0,3.731344 2.46269,5.447762 1.71641,1.19403 4.10447,1.19403 4.7015,0 8.73135,-3.208956 2.16418,-12.014925 3.80597,-15.970149 1.19403,-2.910448 3.0597,-2.910448 2.38806,0 2.53731,2.38806 z" />
        <path d="m 910.6715,75.223881 q 0,1.119403 -0.67164,1.791044 -0.74627,0.820896 -1.86567,0.97015 l -7.91045,0.671641 -3.35821,20.447762 q -0.37313,1.940302 -2.98507,2.238802 -2.38806,0 -2.38806,-2.388056 l 3.28358,-19.850746 -7.01493,0.671641 q -0.89552,0 -1.71641,-0.820895 -0.74627,-0.597015 -0.89553,-1.641791 0,-1.343284 0.59702,-2.014926 0.67164,-0.746268 1.79104,-0.820895 l 8.13433,-0.597015 1.64179,-11.119403 q 0.37314,-2.089552 2.68657,-2.089552 0.89552,0 1.79105,0.671642 0.74626,0.820895 0.74626,2.014925 l -1.49253,9.925373 7.08955,-0.597015 q 0.82089,0 1.64179,0.597015 0.74627,0.671642 0.89552,1.940299 z" />
        <path d="m 940.82063,94.701493 q 0,2.761194 -6.86568,5 -5.67164,1.791047 -9.32835,1.791047 -11.71642,0 -11.71642,-10.223883 0,-6.567164 4.47761,-11.940299 5.07463,-6.19403 12.53731,-6.19403 4.77612,0 7.68657,1.940299 2.91045,1.940298 2.91045,4.402985 0,4.477612 -8.80597,9.029851 -7.38806,3.80597 -10.07463,3.80597 -2.08955,0 -2.08955,-2.537314 0,-0.820895 7.83582,-4.02985 7.91045,-3.283582 7.91045,-5.447762 0,-0.895522 -1.19403,-1.641791 -1.34329,-0.522388 -4.17911,-0.522388 -5.59701,0 -8.88059,3.955224 -2.98508,3.656717 -2.98508,9.029851 0,2.61194 1.49254,4.029851 1.49254,1.41791 4.77612,1.41791 3.73134,0 6.9403,-1.492537 l 7.16418,-3.358209 q 2.38806,0 2.38806,2.985075 z" />
        <path d="m 986.5667,74.776119 q 0,1.343284 -0.97015,2.313433 -0.89552,0.895523 -2.16418,0.895523 -3.20895,0 -3.20895,-3.208956 0,-3.134328 3.0597,-3.134328 3.28358,0 3.28358,3.134328 z m -2.01492,23.134329 q 0,1.343283 -0.89553,2.313432 -0.82089,0.97015 -2.2388,0.97015 -3.13433,0 -3.13433,-3.283582 0,-1.492538 0.97015,-2.313433 0.97015,-0.895522 2.16418,-0.895522 3.13433,0 3.13433,3.208955 z" />
      </g>

      <g id="storytxt" transform="translate(150 10)"> <!-- Story: -->
         <path d="m 71.243781,31.99005 q 0,3.184079 -3.880597,3.582089 L 59.60199,32.985075 q -4.179104,-1.393035 -8.159204,-1.393035 -5.273632,0 -9.054726,1.99005 -4.77612,2.388059 -4.77612,7.164179 0,4.179104 7.462687,7.462686 11.741293,5.273632 13.930348,6.766169 7.661692,5.671642 7.661692,14.825871 0,11.442786 -8.258707,16.81592 -6.766169,4.37811 -17.21393,4.37811 -6.268657,0 -12.636816,-2.686567 -7.164179,-3.084577 -7.164179,-7.363184 0,-1.393035 0.995025,-2.487563 1.094527,-1.094527 2.487562,-1.094527 0.0995,0 5.771144,2.885572 5.771144,2.885572 10.945274,2.885572 7.363184,0 11.940298,-2.885572 Q 59.004975,76.865672 59.004975,70 q 0,-7.562189 -7.462686,-10.845771 L 37.61194,53.18408 q -7.562189,-4.37811 -7.562189,-12.835821 0,-7.462687 6.567164,-12.139304 5.870647,-4.179104 14.626866,-4.179104 6.268657,0 13.233831,2.288557 6.766169,2.189055 6.766169,5.671642 z" />
         <path d="m 108.85553,56.965174 q 0,1.492537 -0.89552,2.38806 -0.99503,1.094527 -2.48756,1.293532 L 94.925183,61.542289 90.447571,88.80597 q -0.497512,2.587065 -3.980099,2.985075 -3.18408,0 -3.18408,-3.18408 l 4.37811,-26.467662 -9.353234,0.895523 q -1.19403,0 -2.288557,-1.094527 -0.995025,-0.79602 -1.19403,-2.189055 0,-1.791045 0.79602,-2.686567 0.895522,-0.995025 2.388059,-1.094528 l 10.845772,-0.79602 2.189054,-14.82587 q 0.497513,-2.78607 3.58209,-2.78607 1.19403,0 2.38806,0.895522 0.995024,1.094528 0.995024,2.686568 l -1.990049,13.23383 9.452739,-0.796019 q 1.09452,0 2.18905,0.796019 0.99503,0.895523 1.19403,2.587065 z" />
         <path d="m 148.85536,69.60199 q 0,9.253731 -5.97015,15.422886 -5.97015,6.169154 -16.2189,6.169154 -7.66169,0 -11.8408,-5.273632 -3.58209,-4.577114 -3.58209,-11.940298 0,-7.56219 5.57214,-13.233831 6.36816,-6.567165 16.41791,-6.567165 7.56219,0 11.9403,5.074627 3.68159,4.37811 3.68159,10.348259 z m -6.76617,1.19403 q 0,-3.681592 -2.18905,-6.467662 -2.68657,-3.283582 -8.0597,-3.283582 -5.67165,0 -9.75125,4.179105 -3.58209,3.681592 -3.58209,8.358209 0,10.447761 9.55224,10.447761 5.77115,0 9.85075,-3.9801 4.1791,-3.980099 4.1791,-9.253731 z" />
         <path d="m 190.04935,57.960199 q 0,2.78607 -1.79105,3.58209 -1.19403,0.597014 -3.78109,0.597014 -9.15423,0 -17.11443,6.467662 -5.97015,4.77612 -7.26368,8.756219 l -1.79105,11.840796 q -0.39801,2.587065 -3.68159,2.587065 -3.08458,0 -3.58209,-3.383085 L 156.119,57.960199 q 0.49751,-3.18408 3.48258,-3.18408 3.48259,0 3.48259,3.781095 l -0.89552,5.572139 q 5.47264,-5.074627 10.24876,-6.766169 6.06965,-2.189055 13.83084,-2.189055 3.7811,0 3.7811,2.78607 z" />
         <path d="m 236.21844,57.960199 -29.95025,60.298511 q -0.99502,1.99005 -3.58209,1.99005 -1.09453,0 -2.08955,-1.09453 -0.99503,-0.99503 -0.99503,-2.88557 0,-1.09453 1.49254,-4.07961 L 211.64133,91.393035 Q 205.77068,76.268657 200.59655,67.512438 l -5.77114,-10.149254 q 0,-3.582089 3.78109,-3.582089 2.18905,0 8.25871,10.447761 3.08457,5.472637 4.87562,9.154229 1.99005,4.079602 4.1791,9.353233 l 13.73135,-27.363184 q 0.69651,-1.990049 3.9801,-1.990049 2.58706,0 2.58706,4.577114 z" />
         <path d="m 297.21326,56.368159 q 0,1.791045 -1.29353,3.084577 -1.19403,1.19403 -2.88557,1.19403 -4.27861,0 -4.27861,-4.278607 0,-4.179104 4.0796,-4.179104 4.37811,0 4.37811,4.179104 z M 294.5267,87.21393 q 0,1.791045 -1.19403,3.084577 -1.09453,1.293533 -2.98508,1.293533 -4.1791,0 -4.1791,-4.37811 0,-1.990049 1.29353,-3.084577 1.29353,-1.19403 2.88557,-1.19403 4.17911,0 4.17911,4.278607 z" />
      </g>
      <g id="tekening" transform="scale(0.25 0.25) translate(100 70)"> 
			<path d="M404.587,35.439h-89.6V9.5c0-5.246-4.254-9.5-9.5-9.5H180.913c-5.246,0-9.5,4.254-9.5,9.5v25.939h-89.6
				c-5.246,0-9.5,4.254-9.5,9.5V476.9c0,5.246,4.254,9.5,9.5,9.5h322.774c5.246,0,9.5-4.254,9.5-9.5V44.939
				C414.087,39.692,409.833,35.439,404.587,35.439z M190.413,19h105.574v54.749H190.413V19z M395.087,467.4H91.313V54.439h80.1
				V83.25c0,5.246,4.254,9.5,9.5,9.5h124.574c5.246,0,9.5-4.254,9.5-9.5V54.439h80.1V467.4z"/>
			<path d="M131.618,141.596h146.541c5.246,0,9.5-4.254,9.5-9.5c0-5.246-4.254-9.5-9.5-9.5H131.618c-5.246,0-9.5,4.254-9.5,9.5
				C122.118,137.342,126.372,141.596,131.618,141.596z"/>
			<path d="M357.656,171.443H131.618c-5.246,0-9.5,4.254-9.5,9.5c0,5.246,4.254,9.5,9.5,9.5h226.038c5.246,0,9.5-4.254,9.5-9.5
				C367.156,175.697,362.902,171.443,357.656,171.443z"/>
			<path d="M357.656,220.291H131.618c-5.246,0-9.5,4.254-9.5,9.5c0,5.246,4.254,9.5,9.5,9.5h226.038c5.246,0,9.5-4.254,9.5-9.5
				C367.156,224.545,362.902,220.291,357.656,220.291z"/>
			<path d="M357.656,266.264H131.618c-5.246,0-9.5,4.254-9.5,9.5c0,5.246,4.254,9.5,9.5,9.5h226.038c5.246,0,9.5-4.254,9.5-9.5
				C367.156,270.518,362.902,266.264,357.656,266.264z"/>
			<path d="M326.049,141.596h31.607c5.246,0,9.5-4.254,9.5-9.5c0-5.246-4.254-9.5-9.5-9.5h-31.607c-5.246,0-9.5,4.254-9.5,9.5
				C316.549,137.342,320.803,141.596,326.049,141.596z"/>
			<path d="M261.631,373.82c0-2.536-1.015-4.968-2.818-6.752l-36.227-35.857c-3.588-3.552-9.331-3.677-13.069-0.281
				c-12.546,11.393-19.742,27.592-19.742,44.444c0,16.116,6.335,31.261,17.838,42.647c1.851,1.832,4.267,2.748,6.683,2.748
				s4.832-0.915,6.683-2.748l37.835-37.449C260.617,378.787,261.631,376.356,261.631,373.82z M215.053,397.153
				c-4.089-6.473-6.277-13.961-6.277-21.779c0-8.494,2.685-16.752,7.546-23.631l22.306,22.077L215.053,397.153z"/>
			<path d="M341.655,332.729v-0.001l-0.001-0.001c-11.477-11.36-26.728-17.616-42.946-17.616c-15.234,0-29.811,5.618-41.044,15.819
				c-1.931,1.753-3.055,4.222-3.112,6.829c-0.056,2.607,0.962,5.122,2.816,6.956l29.405,29.105l-31.013,30.697
				c-1.803,1.784-2.817,4.216-2.817,6.752s1.014,4.967,2.817,6.752c11.477,11.36,26.73,17.616,42.949,17.616
				c33.517,0,60.786-27.034,60.786-60.263C359.493,359.259,353.158,344.115,341.655,332.729L341.655,332.729z M278.731,339.128
				c6.077-3.272,12.922-5.016,19.976-5.016c7.885,0,15.437,2.142,21.973,6.147l-20.403,20.195L278.731,339.128z M298.707,416.637
				c-7.887,0-15.438-2.142-21.973-6.147l37.611-37.228l19.87-19.667c4.09,6.474,6.278,13.961,6.278,21.779
				C340.493,398.127,321.748,416.637,298.707,416.637z"/>
			<path d="M247.95,34.2h-32.3c-5.246,0-9.5,4.254-9.5,9.5c0,5.246,4.254,9.5,9.5,9.5h32.3c5.246,0,9.5-4.254,9.5-9.5
				C257.45,38.454,253.196,34.2,247.95,34.2z"/>
      </g>
    </g>
    <g id="Border">
      <rect x="0" y="0" width="1404" height="1872" stroke="black" stroke-width="10" fill="none"/>
    </g>
    <g id="lineAndBox">
      <rect x="0" y="0" width="50" height="50" fill="none" stroke="black" stroke-width="1" id="rect14" />
      <line x1="80" y1="50" x2="650" y2="50" fill="none" stroke="black" stroke-width="1" id="line12" />
      <rect x="700" y="0" width="50" height="50" fill="none" stroke="black" stroke-width="1" id="rect16" />
      <line x1="780" y1="50" x2="1350" y2="50" fill="none" stroke="black" stroke-width="1" id="line18" />
    </g>
  </defs>
  <!-- The HEADER -->
  <use xlink:href="#Header" x="0" y="0" />
  <rect rx="25" x="10" y="150" width="1384" height="1712" stroke="grey" stroke-width="1" fill="grey"/>
  <g id="notes">
    <rect rx="25" x="20" y="210" width="1364" height="1060" stroke="white" stroke-width="1" fill="white"/>
    <g transform="scale(0.65 0.65) translate(70 307)">
    <path stroke="black" stroke-width="2" fill="white" d="m 66.766169,-61.19403 q 0,8.855722 -2.587065,23.781095 -2.487562,14.527363 -6.467661,25.472636 -4.477612,12.33830895 -8.457712,12.33830895 -3.681592,0 -9.154229,-14.02985095 L 29.850746,-39.701493 q -5.572139,-14.129353 -8.059701,-14.129353 -3.383085,0 -7.164179,21.791045 -1.293533,7.462687 -4.179105,31.04477612 -0.39801,3.18407958 -4.2786068,3.18407958 -3.3830845,0 -3.3830845,-4.1791045 0,-9.1542292 3.1840796,-24.5771142 2.5870646,-12.935324 6.1691537,-24.278607 4.37811,-14.427861 8.059702,-14.427861 5.472637,0 12.636816,13.830846 4.477612,8.656716 10.945274,25.671642 5.373134,14.02985 5.671641,14.129353 0.497513,0 2.587065,-7.562189 0.895522,-3.383085 1.890547,-7.960199 0.497513,-2.487562 1.890548,-9.353234 1.890547,-9.950249 3.383084,-24.278607 0,-3.482587 4.37811,-3.980099 1.293532,0 2.288557,1.094527 0.895522,1.094527 0.895522,2.487562 z" />
    <path stroke="black" stroke-width="2" fill="white" d="m 106.76617,-20.39801 q 0,9.253731 -5.97015,15.4228856 -5.970152,6.1691543 -16.218908,6.1691543 -7.661692,0 -11.840796,-5.2736319 -3.58209,-4.5771144 -3.58209,-11.940298 0,-7.56219 5.57214,-13.233831 6.368159,-6.567165 16.41791,-6.567165 7.562189,0 11.940294,5.074627 3.6816,4.37811 3.6816,10.348259 z m -6.766172,1.19403 q 0,-3.681592 -2.189055,-6.467662 -2.686567,-3.283582 -8.059702,-3.283582 -5.671641,0 -9.751243,4.179105 -3.58209,3.681592 -3.58209,8.358209 0,10.4477607 9.552239,10.4477607 5.771144,0 9.850746,-3.9800995 4.179105,-3.9800992 4.179105,-9.2537312 z" />
    <path stroke="black" stroke-width="2" fill="white" d="m 144.37807,-33.034826 q 0,1.492537 -0.89552,2.38806 -0.99503,1.094527 -2.48757,1.293532 l -10.54726,0.895523 -4.47761,27.2636811 q -0.49751,2.5870647 -3.9801,2.9850747 -3.18408,0 -3.18408,-3.1840796 l 4.37811,-26.4676622 -9.35323,0.895523 q -1.19403,0 -2.28856,-1.094527 -0.99503,-0.79602 -1.19403,-2.189055 0,-1.791045 0.79602,-2.686567 0.89552,-0.995025 2.38806,-1.094528 l 10.84577,-0.79602 2.18905,-14.82587 q 0.49752,-2.78607 3.58209,-2.78607 1.19403,0 2.38806,0.895522 0.99503,1.094528 0.99503,2.686568 l -1.99005,13.23383 9.45273,-0.796019 q 1.09453,0 2.18906,0.796019 0.99502,0.895523 1.19403,2.587065 z" />
    <path stroke="black" stroke-width="2" fill="white" d="m 184.5769,-7.0646766 q 0,3.681592 -9.15422,6.66666665 -7.56219,2.38805975 -12.43782,2.38805975 -15.62189,0 -15.62189,-13.6318408 0,-8.756219 5.97015,-15.920398 6.76617,-8.258707 16.71642,-8.258707 6.36816,0 10.24876,2.587065 3.88059,2.587065 3.88059,5.870647 0,5.970149 -11.74129,12.039801 -9.85075,5.074627 -13.43284,5.074627 -2.78606,0 -2.78606,-3.383085 0,-1.094527 10.44776,-5.373134 10.54726,-4.37811 10.54726,-7.263682 0,-1.19403 -1.59204,-2.189054 -1.79104,-0.696518 -5.57214,-0.696518 -7.46269,0 -11.8408,5.273632 -3.98009,4.875622 -3.98009,12.039801 0,3.482587 1.99005,5.3731343 1.99004,1.8905473 6.36815,1.8905473 4.97513,0 9.25374,-1.9900498 l 9.55223,-4.4776118 q 3.18408,0 3.18408,3.9800994 z" />
    <path stroke="black" stroke-width="2" fill="white" d="m 216.11909,-31.243781 q 0,1.691542 -0.89553,2.885572 -1.09452,1.393035 -2.58706,1.393035 -0.69652,0 -4.57712,-1.492537 -3.78109,-1.59204 -6.46766,-1.59204 -4.47761,0 -4.77612,2.885572 0,2.288557 4.87563,4.477612 8.1592,3.681592 9.05472,4.278607 4.87562,3.084577 4.87562,7.661691 0,7.064677 -4.77612,10.24875656 -3.38308,2.28855724 -8.45771,2.28855724 -8.0597,0 -11.44278,-1.29353236 -3.38309,-1.29353234 -3.38309,-3.48258704 0,-3.4825871 2.98508,-4.079602 l 5.27363,1.4925373 q 2.08955,0.5970149 5.17413,0.5970149 7.36318,0 7.36318,-4.8756219 0,-2.2885567 -4.77612,-4.7761197 -8.45771,-4.179104 -8.95522,-4.577114 -4.87562,-3.283582 -4.87562,-7.562189 0,-4.875622 4.37811,-7.462687 3.58209,-1.990049 8.85572,-1.990049 3.58209,0 7.56219,1.094527 5.57214,1.393035 5.57214,3.880597 z" />

    </g>
  </g>
  <g id="actions">
    <rect rx="25" x="20" y="1340" width="1364" height="512" stroke="white" stroke-width="1" fill="lightgrey"/>
    <g transform="scale(0.65 0.65) translate(60 2030)">
    <path stroke="black" stroke-width="2" fill="white" d="m 57.412935,-60.199005 q 0,11.243781 -7.363184,26.567164 -4.278607,9.054727 -12.238806,20.298508 Q 27.164179,1.5920398 21.59204,1.5920398 q -1.791045,0 -3.283582,-6.5671642 L 11.840796,-34.427861 q -0.79602,-3.482587 -3.9800995,-12.935323 -3.880597,-11.940299 -3.880597,-13.830846 0,-1.691542 1.0945274,-2.885572 1.0945273,-1.19403 2.7860696,-1.19403 2.3880595,0 3.3830845,3.084577 3.482587,10.248756 7.860697,26.467662 2.288557,8.656716 4.278607,18.308458 l 1.393034,6.865671 q 12.039801,-12.437811 18.009951,-25.174129 5.472636,-11.542289 7.064676,-25.273632 0,-1.691542 1.293533,-2.686567 1.293532,-1.094527 2.885572,-1.094527 3.383084,0 3.383084,4.577114 z" />
    <path stroke="black" stroke-width="2" fill="white" d="m 97.611915,-7.0646766 q 0,3.681592 -9.154228,6.66666665 -7.562189,2.38805975 -12.437811,2.38805975 -15.621891,0 -15.621891,-13.6318408 0,-8.756219 5.970149,-15.920398 6.766169,-8.258707 16.716418,-8.258707 6.368159,0 10.248756,2.587065 3.880597,2.587065 3.880597,5.870647 0,5.970149 -11.741293,12.039801 -9.850746,5.074627 -13.432836,5.074627 -2.78607,0 -2.78607,-3.383085 0,-1.094527 10.447762,-5.373134 10.547263,-4.37811 10.547263,-7.263682 0,-1.19403 -1.592039,-2.189054 -1.791045,-0.696518 -5.57214,-0.696518 -7.462686,0 -11.840796,5.273632 -3.980099,4.875622 -3.980099,12.039801 0,3.482587 1.990049,5.3731343 1.99005,1.8905473 6.36816,1.8905473 4.975124,0 9.253731,-1.9900498 l 9.552239,-4.4776118 q 3.184079,0 3.184079,3.9800994 z" />
    <path stroke="black" stroke-width="2" fill="white" d="m 138.80584,-32.039801 q 0,2.78607 -1.79105,3.58209 -1.19403,0.597014 -3.78109,0.597014 -9.15423,0 -17.11443,6.467662 -5.97015,4.77612 -7.26368,8.756219 l -1.79104,11.8407961 q -0.39801,2.5870647 -3.6816,2.5870647 -3.08457,0 -3.582086,-3.3830846 l 5.074626,-30.4477612 q 0.49751,-3.18408 3.48259,-3.18408 3.48258,0 3.48258,3.781095 l -0.89552,5.572139 q 5.47264,-5.074627 10.24876,-6.766169 6.06965,-2.189055 13.83084,-2.189055 3.7811,0 3.7811,2.78607 z" />
    <path stroke="black" stroke-width="2" fill="white" d="m 158.60677,-45.572139 q 0,3.283582 -2.78607,4.278607 -0.79602,0.298507 -1.99005,0.298507 -1.89055,0 -3.18408,-1.19403 -1.29354,-1.19403 -1.29354,-3.383084 0,-4.577115 4.47762,-4.577115 1.99005,0 3.48258,1.094528 1.29354,1.393034 1.29354,3.482587 z m -3.58209,13.532338 q 0,1.791045 -0.59702,5.671642 l -4.1791,25.37313412 q 0,1.29353234 -1.29354,2.08955228 -1.19403,0.8955224 -2.48756,0.8955224 -2.88557,0 -3.28358,-3.3830846 l 0.69652,-4.8756219 4.37811,-25.9701493 q 0.49751,-2.78607 3.58209,-2.78607 3.18408,0 3.18408,2.985075 z" />
    <path stroke="black" stroke-width="2" fill="white" d="m 200.39776,-58.606965 q 0,1.59204 -0.89552,2.686567 -0.99502,1.094527 -2.88557,1.094527 -7.26368,0 -11.54229,7.064677 -2.58706,4.278607 -4.0796,12.139303 l 9.15423,-0.796019 q 4.0796,0 4.0796,3.184079 0,2.587065 -2.98507,3.880597 -3.38309,0.895523 -11.44279,0.895523 l -4.57711,27.2636811 q -0.29851,2.9850747 -4.17911,2.9850747 -2.88557,0 -2.88557,-4.1791045 l 4.37811,-25.4726373 -6.66667,0.696518 q -3.68159,0 -3.68159,-3.283582 0,-3.283582 4.0796,-3.9801 l 7.56219,-0.597015 q 1.29353,-9.651741 5.37313,-16.41791 6.26866,-10.348259 17.41294,-10.348259 3.38308,0 3.78109,3.18408 z" />
    <path stroke="black" stroke-width="2" fill="white" d="m 236.61657,-32.039801 -29.95025,60.298507 q -0.99502,1.99005 -3.58209,1.99005 -1.09452,0 -2.08955,-1.094527 -0.99502,-0.995025 -0.99502,-2.885572 0,-1.094528 1.49253,-4.079602 L 212.03946,1.3930348 Q 206.16881,-13.731343 200.99468,-22.487562 l -5.77114,-10.149254 q 0,-3.582089 3.78109,-3.582089 2.18906,0 8.25871,10.447761 3.08458,5.472637 4.87562,9.154229 1.99005,4.079602 4.1791,9.3532334 l 13.73135,-27.3631844 q 0.69652,-1.990049 3.9801,-1.990049 2.58706,0 2.58706,4.577114 z" />


    </g>
    <use xlink:href="#lineAndBox" x="30" y="1370" id="use25" />
    <use xlink:href="#lineAndBox" x="30" y="1470" id="use27" />
    <use xlink:href="#lineAndBox" x="30" y="1570" id="use29" />
    <use xlink:href="#lineAndBox" x="30" y="1670" id="use31" />
    <use xlink:href="#lineAndBox" x="30" y="1770" id="use33" />
  </g>
</svg>
