<?xml version="1.0" encoding="UTF-8"?>
<svg width="1404px" height="1872px" viewBox="0 0 1404 1872" xmlns="http://www.w3.org/2000/svg" xmlns:xlink="http://www.w3.org/1999/xlink" version="1.1">
  <defs>
    <g id="Header">
      <g> <!-- Date :-->>
         <path d="m 786.76617,49.20398 q 0,14.527363 -10.24876,24.676617 -8.85572,8.457711 -24.0796,12.935323 -13.33333,3.781095 -28.0597,3.781095 -4.37811,0 -4.37811,-3.781095 0,-3.184079 3.48259,-4.079602 1.49253,-0.39801 5.97015,-0.39801 7.36318,-24.875621 7.36318,-41.791044 0,-1.691543 1.19403,-2.885572 1.19403,-1.293533 2.98507,-1.293533 3.38309,0 3.38309,3.9801 0,10.746268 -1.79105,20.39801 -1.69154,9.651741 -5.17412,21.094527 3.48258,0 10.84577,-2.089552 12.53731,-3.383085 20,-8.955224 10.94527,-8.059702 10.94527,-20.199005 0,-18.208955 -21.19403,-18.208955 -10.84577,0 -17.31343,1.890547 l -14.72637,4.278607 q -1.59204,0 -2.38806,-0.895522 -0.59702,-0.895523 -0.59702,-2.686568 0,-2.587064 2.58707,-3.980099 18.40796,-6.467662 33.23383,-6.467662 12.23881,0 19.801,6.169154 8.1592,6.567165 8.1592,18.507463 z" />
         <path d="m 829.95025,58.159204 q -5.57214,17.014925 -5.57214,30.447761 0,2.985075 -3.38309,3.383085 -1.69154,0 -2.78607,-1.293533 -0.99502,-1.194029 -0.99502,-2.885572 -3.28358,3.9801 -11.64179,3.9801 -5.67164,0 -10.34826,-3.9801 -5.47264,-4.676617 -5.47264,-12.039801 0,-9.154229 7.16418,-15.124378 6.76617,-5.671642 16.1194,-5.671642 4.57712,0 5.97015,1.094528 Q 820,56.766169 820,58.557214 q 0,1.393035 -0.79602,2.487562 -0.89552,0.895523 -3.28358,0.895523 -7.26369,0 -12.53732,3.084577 -6.36816,3.781094 -6.36816,10.547263 0,4.975125 3.28358,7.263682 2.28856,1.59204 5.47264,1.59204 6.26866,0 11.64179,-4.278607 2.88557,-16.019901 5.07463,-21.293533 1.59204,-3.880597 4.0796,-3.880597 3.18408,0 3.38309,3.18408 z" />
         <path d="m 867.56201,56.965174 q 0,1.492537 -0.89553,2.38806 -0.99502,1.094527 -2.48756,1.293532 l -10.54726,0.895523 -4.47761,27.263681 q -0.49752,2.587065 -3.9801,2.985075 -3.18408,0 -3.18408,-3.18408 l 4.37811,-26.467662 -9.35324,0.895523 q -1.19403,0 -2.28855,-1.094527 -0.99503,-0.79602 -1.19403,-2.189055 0,-1.791045 0.79602,-2.686567 0.89552,-0.995025 2.38805,-1.094528 l 10.84578,-0.79602 2.18905,-14.82587 q 0.49751,-2.78607 3.58209,-2.78607 1.19403,0 2.38806,0.895522 0.99502,1.094528 0.99502,2.686568 l -1.99004,13.23383 9.45273,-0.796019 q 1.09453,0 2.18906,0.796019 0.99502,0.895523 1.19403,2.587065 z" />
         <path d="m 907.76083,82.935323 q 0,3.681592 -9.15423,6.666667 -7.56218,2.38806 -12.43781,2.38806 -15.62189,0 -15.62189,-13.631841 0,-8.756219 5.97015,-15.920398 6.76617,-8.258707 16.71642,-8.258707 6.36816,0 10.24876,2.587065 3.88059,2.587065 3.88059,5.870647 0,5.970149 -11.74129,12.039801 -9.85075,5.074627 -13.43284,5.074627 -2.78607,0 -2.78607,-3.383085 0,-1.094527 10.44777,-5.373134 10.54726,-4.37811 10.54726,-7.263682 0,-1.19403 -1.59204,-2.189054 -1.79105,-0.696518 -5.57214,-0.696518 -7.46269,0 -11.8408,5.273632 -3.9801,4.875622 -3.9801,12.039801 0,3.482587 1.99005,5.373134 1.99005,1.890548 6.36816,1.890548 4.97513,0 9.25374,-1.99005 l 9.55223,-4.477612 q 3.18408,0 3.18408,3.980099 z" />
         <path d="m 968.75561,56.368159 q 0,1.791045 -1.29354,3.084577 -1.19403,1.19403 -2.88557,1.19403 -4.2786,0 -4.2786,-4.278607 0,-4.179104 4.0796,-4.179104 4.37811,0 4.37811,4.179104 z m -2.68657,30.845771 q 0,1.791045 -1.19403,3.084577 -1.09453,1.293533 -2.98507,1.293533 -4.17911,0 -4.17911,-4.37811 0,-1.990049 1.29353,-3.084577 1.29354,-1.19403 2.88558,-1.19403 4.1791,0 4.1791,4.278607 z" />
      </g>
      <g> <!-- Story: -->
         <path d="m 71.243781,31.99005 q 0,3.184079 -3.880597,3.582089 L 59.60199,32.985075 q -4.179104,-1.393035 -8.159204,-1.393035 -5.273632,0 -9.054726,1.99005 -4.77612,2.388059 -4.77612,7.164179 0,4.179104 7.462687,7.462686 11.741293,5.273632 13.930348,6.766169 7.661692,5.671642 7.661692,14.825871 0,11.442786 -8.258707,16.81592 -6.766169,4.37811 -17.21393,4.37811 -6.268657,0 -12.636816,-2.686567 -7.164179,-3.084577 -7.164179,-7.363184 0,-1.393035 0.995025,-2.487563 1.094527,-1.094527 2.487562,-1.094527 0.0995,0 5.771144,2.885572 5.771144,2.885572 10.945274,2.885572 7.363184,0 11.940298,-2.885572 Q 59.004975,76.865672 59.004975,70 q 0,-7.562189 -7.462686,-10.845771 L 37.61194,53.18408 q -7.562189,-4.37811 -7.562189,-12.835821 0,-7.462687 6.567164,-12.139304 5.870647,-4.179104 14.626866,-4.179104 6.268657,0 13.233831,2.288557 6.766169,2.189055 6.766169,5.671642 z" />
         <path d="m 108.85553,56.965174 q 0,1.492537 -0.89552,2.38806 -0.99503,1.094527 -2.48756,1.293532 L 94.925183,61.542289 90.447571,88.80597 q -0.497512,2.587065 -3.980099,2.985075 -3.18408,0 -3.18408,-3.18408 l 4.37811,-26.467662 -9.353234,0.895523 q -1.19403,0 -2.288557,-1.094527 -0.995025,-0.79602 -1.19403,-2.189055 0,-1.791045 0.79602,-2.686567 0.895522,-0.995025 2.388059,-1.094528 l 10.845772,-0.79602 2.189054,-14.82587 q 0.497513,-2.78607 3.58209,-2.78607 1.19403,0 2.38806,0.895522 0.995024,1.094528 0.995024,2.686568 l -1.990049,13.23383 9.452739,-0.796019 q 1.09452,0 2.18905,0.796019 0.99503,0.895523 1.19403,2.587065 z" />
         <path d="m 148.85536,69.60199 q 0,9.253731 -5.97015,15.422886 -5.97015,6.169154 -16.2189,6.169154 -7.66169,0 -11.8408,-5.273632 -3.58209,-4.577114 -3.58209,-11.940298 0,-7.56219 5.57214,-13.233831 6.36816,-6.567165 16.41791,-6.567165 7.56219,0 11.9403,5.074627 3.68159,4.37811 3.68159,10.348259 z m -6.76617,1.19403 q 0,-3.681592 -2.18905,-6.467662 -2.68657,-3.283582 -8.0597,-3.283582 -5.67165,0 -9.75125,4.179105 -3.58209,3.681592 -3.58209,8.358209 0,10.447761 9.55224,10.447761 5.77115,0 9.85075,-3.9801 4.1791,-3.980099 4.1791,-9.253731 z" />
         <path d="m 190.04935,57.960199 q 0,2.78607 -1.79105,3.58209 -1.19403,0.597014 -3.78109,0.597014 -9.15423,0 -17.11443,6.467662 -5.97015,4.77612 -7.26368,8.756219 l -1.79105,11.840796 q -0.39801,2.587065 -3.68159,2.587065 -3.08458,0 -3.58209,-3.383085 L 156.119,57.960199 q 0.49751,-3.18408 3.48258,-3.18408 3.48259,0 3.48259,3.781095 l -0.89552,5.572139 q 5.47264,-5.074627 10.24876,-6.766169 6.06965,-2.189055 13.83084,-2.189055 3.7811,0 3.7811,2.78607 z" />
         <path d="m 236.21844,57.960199 -29.95025,60.298511 q -0.99502,1.99005 -3.58209,1.99005 -1.09453,0 -2.08955,-1.09453 -0.99503,-0.99503 -0.99503,-2.88557 0,-1.09453 1.49254,-4.07961 L 211.64133,91.393035 Q 205.77068,76.268657 200.59655,67.512438 l -5.77114,-10.149254 q 0,-3.582089 3.78109,-3.582089 2.18905,0 8.25871,10.447761 3.08457,5.472637 4.87562,9.154229 1.99005,4.079602 4.1791,9.353233 l 13.73135,-27.363184 q 0.69651,-1.990049 3.9801,-1.990049 2.58706,0 2.58706,4.577114 z" />
         <path d="m 297.21326,56.368159 q 0,1.791045 -1.29353,3.084577 -1.19403,1.19403 -2.88557,1.19403 -4.27861,0 -4.27861,-4.278607 0,-4.179104 4.0796,-4.179104 4.37811,0 4.37811,4.179104 z M 294.5267,87.21393 q 0,1.791045 -1.19403,3.084577 -1.09453,1.293533 -2.98508,1.293533 -4.1791,0 -4.1791,-4.37811 0,-1.990049 1.29353,-3.084577 1.29353,-1.19403 2.88557,-1.19403 4.17911,0 4.17911,4.278607 z" />
      </g>
    <line x1="0" y1="120" x2="1404" y2="120" stroke="black" stroke-width="8" />
    </g>
    <g id="Border">
      <rect x="0" y="0" width="1404" height="1872" stroke="black" stroke-width="10" fill="none"/>
    </g>
    <g id="lineAndBox">
      <line x1="80" y1="55" x2="680" y2="55" fill="none" stroke="black" stroke-width="1" id="line12" />
      <rect x="0" y="0" width="55" height="55" fill="none" stroke="black" stroke-width="1" id="rect14" />
      <rect x="700" y="0" width="55" height="55" fill="none" stroke="black" stroke-width="1" id="rect16" />
      <line x1="780" y1="55" x2="1404" y2="55" fill="none" stroke="black" stroke-width="1" id="line18" />
    </g>
  </defs>
  <!-- The HEADER -->
  <use xlink:href="#Header" x="0" y="0" />
  <use xlink:href="#lineAndBox" x="50" y="1370" id="use25" />
  <use xlink:href="#lineAndBox" x="50" y="1470" id="use27" />
  <use xlink:href="#lineAndBox" x="50" y="1570" id="use29" />
  <use xlink:href="#lineAndBox" x="50" y="1670" id="use31" />
  <use xlink:href="#lineAndBox" x="50" y="1770" id="use33" />
  <!-- The Border -->
  <use xlink:href="#Border" x="0" y="0" id="use35" />
</svg>
